<svg width="238" height="104" viewBox="0 0 238 104" fill="none" xmlns="http://www.w3.org/2000/svg">
<path d="M40.072 10.168L26.584 29.608L40.072 49H29.32L21.208 37.336L13.048 49H2.344L15.832 29.608L2.344 10.168H13.048L21.208 21.88L29.32 10.168H40.072ZM65.8885 10.216H75.9685L57.1045 49H47.4085L53.0245 36.568L40.8325 10.216H50.8645L57.9205 27.16L65.8885 10.216ZM98.1021 41.224V17.944H88.8381V22.744C88.8381 31.24 87.0141 37.096 85.0461 41.224H98.1021ZM106.742 41.224H112.742V56.776H105.014V49H78.6141V56.776H70.8861V41.224C75.8301 41.224 79.4781 41.224 75.4941 41.224C78.8541 41.224 81.2541 31.864 81.2541 21.352V10.168C85.5261 10.168 101.798 10.168 106.742 10.168V41.224ZM115.099 10.168H142.843V17.944H123.499V24.856L139.627 24.952V32.68L123.499 32.632V41.272H142.843V49H115.099V10.168ZM172.778 10.168H180.938V49H172.778V23.416L153.962 49H145.802V10.168H153.962V35.56L172.778 10.168ZM163.37 9.4C158.762 9.4 154.73 6.088 154.73 0.903996L154.682 0.711998H159.578V0.903996C159.578 3.352 161.498 4.648 163.37 4.648C165.242 4.648 167.162 3.352 167.162 0.903996V0.711998H172.01V0.903996C172.01 6.088 167.978 9.4 163.37 9.4ZM228.598 33.352H237.382C235.894 44.2 228.214 49.72 219.094 49.72C208.966 49.72 200.614 42.808 200.614 29.56C200.614 16.6 208.966 9.352 219.094 9.352C228.262 9.352 235.366 14.968 237.19 24.616H228.214C227.206 19.768 223.558 17.416 219.094 17.416C213.382 17.416 208.966 21.256 208.966 29.56C208.966 37.912 213.334 41.704 219.094 41.704C223.942 41.704 227.974 39.016 228.598 33.352ZM28.024 88.224V64.944H18.76V69.744C18.76 78.24 16.936 84.096 14.968 88.224H28.024ZM36.664 88.224H42.664V103.776H34.936V96H8.536V103.776H0.808V88.224C5.752 88.224 9.4 88.224 5.416 88.224C8.776 88.224 11.176 78.864 11.176 68.352V57.168C15.448 57.168 31.72 57.168 36.664 57.168V88.224ZM45.0205 57.168H53.1805V82.56L71.9965 57.168H80.1565V96H71.9965V70.416L53.1805 96H45.0205V57.168ZM110.598 96L107.574 87.984H93.2699L90.2459 96H82.0859L96.3419 57.168H105.366L118.758 96H110.598ZM95.9579 80.832H104.886L100.422 69.024L95.9579 80.832ZM129.269 57.168V71.856H145.637V57.168H154.277V96H145.637V79.632H129.269V96H120.677V57.168H129.269ZM175.922 56.352C186.53 56.352 194.45 63.84 194.45 76.56C194.45 89.856 186.05 96.72 175.922 96.72C165.794 96.72 157.442 89.808 157.442 76.56C157.442 63.6 165.794 56.352 175.922 56.352ZM175.922 88.704C181.73 88.704 186.05 84.912 186.05 76.56C186.05 68.256 181.682 64.416 175.922 64.416C170.21 64.416 165.794 68.256 165.794 76.56C165.794 84.912 170.162 88.704 175.922 88.704ZM224.528 57.168H232.688V96H224.528V70.416L205.712 96H197.552V57.168H205.712V82.56L224.528 57.168ZM215.12 56.4C210.512 56.4 206.48 53.088 206.48 47.904L206.432 47.712H211.328V47.904C211.328 50.352 213.248 51.648 215.12 51.648C216.992 51.648 218.912 50.352 218.912 47.904V47.712H223.76V47.904C223.76 53.088 219.728 56.4 215.12 56.4Z" fill="black"/>
</svg>
