<svg width="207" height="14" viewBox="0 0 207 14" fill="none" xmlns="http://www.w3.org/2000/svg">
<path d="M10.0394 0.274999V11.045L8.85441 10.985L7.72941 10.94L7.68441 8.84V4.505L7.62441 2.195H4.62441V3.215C4.62441 3.645 4.59941 4.27 4.54941 5.09C4.48941 5.94 4.42441 6.72 4.35441 7.43C4.28441 8.16 4.23441 8.65 4.20441 8.9C4.09441 9.41 3.94941 9.82 3.76941 10.13C3.58941 10.45 3.37441 10.665 3.12441 10.775C2.94441 10.885 2.58941 10.955 2.05941 10.985C1.51941 11.025 1.14441 11.01 0.934413 10.94C0.894413 10.9 0.864413 10.835 0.844413 10.745L0.799413 10.4L0.769413 9.92C0.769413 9.45 0.789413 9.17 0.829413 9.08C0.859413 8.99 0.984413 8.91 1.20441 8.84C1.62441 8.77 1.88941 8.47 1.99941 7.94C2.10941 7.4 2.17941 6.075 2.20941 3.965L2.26941 0.274999H10.0394ZM20.2695 7.64C20.2695 7.59 20.2695 7.545 20.2695 7.505C20.2695 7.455 20.2745 7.405 20.2845 7.355C20.2945 7.305 20.2995 7.235 20.2995 7.145C20.2995 7.045 20.2945 6.97 20.2845 6.92V6.8C20.2645 6.75 20.2545 6.695 20.2545 6.635C20.2545 6.575 20.2495 6.52 20.2395 6.47C20.2395 6.43 20.2345 6.4 20.2245 6.38C20.2045 6.3 20.1845 6.22 20.1645 6.14C20.1545 6.05 20.1345 5.965 20.1045 5.885C19.9945 5.625 19.8645 5.405 19.7145 5.225C19.5645 5.035 19.3645 4.885 19.1145 4.775C19.0545 4.755 18.9945 4.74 18.9345 4.73C18.8745 4.71 18.8095 4.69 18.7395 4.67C18.6595 4.65 18.5745 4.645 18.4845 4.655C18.3945 4.655 18.3045 4.655 18.2145 4.655C18.1845 4.675 18.1495 4.685 18.1095 4.685C18.0695 4.675 18.0345 4.675 18.0045 4.685C17.9345 4.705 17.8645 4.725 17.7945 4.745C17.7345 4.755 17.6795 4.775 17.6295 4.805C17.3795 4.915 17.1745 5.075 17.0145 5.285C16.8645 5.485 16.7445 5.72 16.6545 5.99C16.6245 6.09 16.5995 6.195 16.5795 6.305C16.5695 6.415 16.5545 6.525 16.5345 6.635C16.5245 6.685 16.5195 6.735 16.5195 6.785C16.5195 6.835 16.5195 6.885 16.5195 6.935C16.4995 7.005 16.4895 7.11 16.4895 7.25C16.4995 7.39 16.5145 7.495 16.5345 7.565V7.7C16.5545 7.78 16.5695 7.86 16.5795 7.94C16.5895 8.01 16.6045 8.085 16.6245 8.165C16.7245 8.465 16.8295 8.71 16.9395 8.9C17.0595 9.08 17.2445 9.245 17.4945 9.395C17.5645 9.445 17.6395 9.485 17.7195 9.515C17.8095 9.545 17.8995 9.57 17.9895 9.59C18.0295 9.6 18.0645 9.605 18.0945 9.605C18.1245 9.595 18.1595 9.595 18.1995 9.605C18.2395 9.615 18.2795 9.625 18.3195 9.635C18.3695 9.635 18.4145 9.63 18.4545 9.62H18.5745C18.6545 9.6 18.7345 9.585 18.8145 9.575C18.8945 9.565 18.9695 9.545 19.0395 9.515C19.2995 9.415 19.5095 9.28 19.6695 9.11C19.8295 8.94 19.9645 8.73 20.0745 8.48C20.1145 8.38 20.1445 8.28 20.1645 8.18C20.1845 8.08 20.2095 7.975 20.2395 7.865C20.2495 7.825 20.2545 7.79 20.2545 7.76C20.2545 7.72 20.2595 7.68 20.2695 7.64ZM14.4495 7.82H13.0245V11.015H11.9745C11.3045 11.015 10.9545 10.98 10.9245 10.91C10.8845 10.88 10.8545 10.49 10.8345 9.74C10.8245 8.99 10.8195 8.09 10.8195 7.04V3.275H13.0245V6.035H14.5095C14.5395 5.925 14.5695 5.815 14.5995 5.705C14.6295 5.585 14.6695 5.465 14.7195 5.345C14.8995 4.935 15.1145 4.595 15.3645 4.325C15.6145 4.045 15.9195 3.79 16.2795 3.56C16.3795 3.51 16.4845 3.465 16.5945 3.425C16.7045 3.385 16.8145 3.34 16.9245 3.29C17.0545 3.24 17.1895 3.205 17.3295 3.185C17.4695 3.165 17.6145 3.135 17.7645 3.095C17.8445 3.085 17.9195 3.08 17.9895 3.08C18.0595 3.08 18.1295 3.075 18.1995 3.065C18.7795 3.055 19.2795 3.115 19.6995 3.245C20.1295 3.375 20.5095 3.555 20.8395 3.785C20.9495 3.865 21.0595 3.955 21.1695 4.055C21.2895 4.145 21.3895 4.245 21.4695 4.355C21.5495 4.455 21.6195 4.555 21.6795 4.655C21.7495 4.755 21.8195 4.86 21.8895 4.97C21.9595 5.08 22.0145 5.2 22.0545 5.33C22.0945 5.45 22.1395 5.58 22.1895 5.72C22.2195 5.8 22.2445 5.885 22.2645 5.975C22.2845 6.065 22.3045 6.155 22.3245 6.245C22.3345 6.285 22.3395 6.325 22.3395 6.365C22.3395 6.405 22.3445 6.445 22.3545 6.485C22.3745 6.535 22.3795 6.59 22.3695 6.65C22.3595 6.71 22.3645 6.765 22.3845 6.815C22.4045 6.875 22.4145 6.96 22.4145 7.07C22.4145 7.18 22.4045 7.265 22.3845 7.325V7.475C22.3645 7.555 22.3545 7.635 22.3545 7.715C22.3645 7.795 22.3595 7.875 22.3395 7.955C22.3195 8.025 22.3045 8.09 22.2945 8.15C22.2845 8.21 22.2745 8.275 22.2645 8.345C22.2245 8.455 22.1895 8.57 22.1595 8.69C22.1295 8.8 22.0895 8.905 22.0395 9.005C21.8295 9.485 21.5545 9.875 21.2145 10.175C20.8745 10.475 20.4645 10.725 19.9845 10.925C19.8645 10.975 19.7395 11.01 19.6095 11.03C19.4895 11.06 19.3645 11.09 19.2345 11.12C19.1845 11.14 19.1295 11.15 19.0695 11.15C19.0095 11.15 18.9545 11.155 18.9045 11.165C18.8745 11.165 18.8395 11.165 18.7995 11.165C18.7695 11.175 18.7395 11.18 18.7095 11.18C18.6595 11.19 18.5795 11.195 18.4695 11.195C18.3595 11.205 18.2745 11.2 18.2145 11.18H18.0645C18.0145 11.17 17.9595 11.165 17.8995 11.165C17.8495 11.175 17.7995 11.17 17.7495 11.15C17.7095 11.14 17.6695 11.135 17.6295 11.135C17.5995 11.135 17.5595 11.13 17.5095 11.12C17.4095 11.09 17.3095 11.065 17.2095 11.045C17.1095 11.025 17.0145 10.995 16.9245 10.955C16.8045 10.915 16.6895 10.875 16.5795 10.835C16.4795 10.795 16.3745 10.745 16.2645 10.685C15.9145 10.475 15.6145 10.23 15.3645 9.95C15.1145 9.67 14.9045 9.335 14.7345 8.945C14.6845 8.855 14.6445 8.76 14.6145 8.66C14.5945 8.56 14.5695 8.455 14.5395 8.345C14.5195 8.295 14.5095 8.25 14.5095 8.21C14.5095 8.17 14.4995 8.125 14.4795 8.075C14.4595 7.995 14.4495 7.91 14.4495 7.82ZM28.1928 0.26H30.2028V1.22V2.165H28.1478C27.9278 2.165 27.7228 2.165 27.5328 2.165C27.3428 2.165 27.1678 2.175 27.0078 2.195C26.8478 2.215 26.6978 2.225 26.5578 2.225C26.4178 2.225 26.2928 2.235 26.1828 2.255C26.0728 2.275 25.9828 2.295 25.9128 2.315C25.8428 2.325 25.7928 2.35 25.7628 2.39C25.5528 2.49 25.3578 2.7 25.1778 3.02C24.9978 3.34 24.8728 3.695 24.8028 4.085L24.6978 4.61L25.0728 4.295C25.6328 3.765 26.3728 3.52 27.2928 3.56C28.2128 3.59 28.9728 3.885 29.5728 4.445C30.2728 5.085 30.6128 5.98 30.5928 7.13C30.5828 8.27 30.2228 9.195 29.5128 9.905C29.0228 10.435 28.3728 10.78 27.5628 10.94C26.7528 11.1 25.9928 11.07 25.2828 10.85C24.6428 10.61 24.1178 10.21 23.7078 9.65C23.3078 9.08 23.0278 8.37 22.8678 7.52C22.7078 6.67 22.6828 5.7 22.7928 4.61C22.9028 3.55 23.0278 2.825 23.1678 2.435C23.3078 2.045 23.5728 1.655 23.9628 1.265C24.2728 0.984999 24.5778 0.774999 24.8778 0.634999C25.1778 0.494999 25.5678 0.399999 26.0478 0.349999C26.5278 0.29 27.2428 0.26 28.1928 0.26ZM26.5578 5.195C26.4878 5.195 26.4128 5.205 26.3328 5.225C26.2628 5.235 26.2128 5.26 26.1828 5.3C25.5428 5.47 25.1728 5.91 25.0728 6.62C24.8628 7.68 25.1178 8.46 25.8378 8.96C26.5578 9.45 27.2528 9.34 27.9228 8.63C28.0328 8.53 28.1128 8.435 28.1628 8.345C28.2228 8.255 28.2778 8.16 28.3278 8.06C28.3778 7.95 28.4128 7.835 28.4328 7.715C28.4528 7.585 28.4628 7.45 28.4628 7.31C28.4628 7.17 28.4428 7.01 28.4028 6.83C28.4028 6.65 28.3678 6.475 28.2978 6.305C28.2278 6.125 28.1278 5.965 27.9978 5.825C27.8778 5.685 27.7378 5.565 27.5778 5.465C27.4278 5.355 27.2628 5.285 27.0828 5.255C26.9028 5.215 26.7278 5.195 26.5578 5.195ZM39.2246 6.815C39.2446 6.875 39.2546 6.96 39.2546 7.07C39.2546 7.18 39.2446 7.265 39.2246 7.325V7.475C39.2046 7.555 39.1946 7.635 39.1946 7.715C39.2046 7.795 39.1996 7.875 39.1796 7.955C39.1596 8.025 39.1446 8.09 39.1346 8.15C39.1246 8.21 39.1146 8.275 39.1046 8.345C39.0646 8.455 39.0296 8.57 38.9996 8.69C38.9696 8.8 38.9296 8.905 38.8796 9.005C38.6696 9.485 38.3946 9.875 38.0546 10.175C37.7146 10.475 37.3046 10.725 36.8246 10.925C36.7046 10.975 36.5796 11.01 36.4496 11.03C36.3296 11.06 36.2046 11.09 36.0746 11.12C36.0246 11.14 35.9696 11.15 35.9096 11.15C35.8496 11.15 35.7946 11.155 35.7446 11.165C35.7146 11.165 35.6796 11.165 35.6396 11.165C35.6096 11.175 35.5796 11.18 35.5496 11.18C35.4996 11.19 35.4196 11.195 35.3096 11.195C35.1996 11.205 35.1146 11.2 35.0546 11.18H34.9046C34.8546 11.17 34.7996 11.165 34.7396 11.165C34.6896 11.175 34.6396 11.17 34.5896 11.15C34.5496 11.14 34.5096 11.135 34.4696 11.135C34.4396 11.135 34.3996 11.13 34.3496 11.12C34.2496 11.09 34.1496 11.065 34.0496 11.045C33.9496 11.025 33.8546 10.995 33.7646 10.955C33.6446 10.915 33.5296 10.875 33.4196 10.835C33.3196 10.795 33.2146 10.745 33.1046 10.685C32.7546 10.475 32.4546 10.23 32.2046 9.95C31.9546 9.67 31.7446 9.335 31.5746 8.945C31.5246 8.855 31.4846 8.76 31.4546 8.66C31.4346 8.56 31.4096 8.455 31.3796 8.345C31.3596 8.295 31.3496 8.25 31.3496 8.21C31.3496 8.17 31.3396 8.125 31.3196 8.075C31.2996 7.995 31.2896 7.915 31.2896 7.835C31.2896 7.745 31.2796 7.66 31.2596 7.58C31.2496 7.53 31.2446 7.485 31.2446 7.445C31.2446 7.405 31.2446 7.36 31.2446 7.31C31.2246 7.25 31.2146 7.165 31.2146 7.055C31.2246 6.945 31.2396 6.86 31.2596 6.8V6.695C31.2696 6.645 31.2696 6.595 31.2596 6.545C31.2596 6.485 31.2696 6.43 31.2896 6.38C31.2996 6.33 31.3046 6.285 31.3046 6.245C31.3046 6.195 31.3146 6.145 31.3346 6.095C31.3746 5.965 31.4096 5.84 31.4396 5.72C31.4696 5.59 31.5096 5.465 31.5596 5.345C31.7396 4.935 31.9546 4.595 32.2046 4.325C32.4546 4.045 32.7596 3.79 33.1196 3.56C33.2196 3.51 33.3246 3.465 33.4346 3.425C33.5446 3.385 33.6546 3.34 33.7646 3.29C33.8946 3.24 34.0296 3.205 34.1696 3.185C34.3096 3.165 34.4546 3.135 34.6046 3.095C34.6846 3.085 34.7596 3.08 34.8296 3.08C34.8996 3.08 34.9696 3.075 35.0396 3.065C35.6196 3.055 36.1196 3.115 36.5396 3.245C36.9696 3.375 37.3496 3.555 37.6796 3.785C37.7896 3.865 37.8996 3.955 38.0096 4.055C38.1296 4.145 38.2296 4.245 38.3096 4.355C38.3896 4.455 38.4596 4.555 38.5196 4.655C38.5896 4.755 38.6596 4.86 38.7296 4.97C38.7996 5.08 38.8546 5.2 38.8946 5.33C38.9346 5.45 38.9796 5.58 39.0296 5.72C39.0596 5.8 39.0846 5.885 39.1046 5.975C39.1246 6.065 39.1446 6.155 39.1646 6.245C39.1746 6.285 39.1796 6.325 39.1796 6.365C39.1796 6.405 39.1846 6.445 39.1946 6.485C39.2146 6.535 39.2196 6.59 39.2096 6.65C39.1996 6.71 39.2046 6.765 39.2246 6.815ZM37.1246 7.355C37.1346 7.305 37.1396 7.235 37.1396 7.145C37.1396 7.045 37.1346 6.97 37.1246 6.92V6.8C37.1046 6.75 37.0946 6.695 37.0946 6.635C37.0946 6.575 37.0896 6.52 37.0796 6.47C37.0796 6.43 37.0746 6.4 37.0646 6.38C37.0446 6.3 37.0246 6.22 37.0046 6.14C36.9946 6.05 36.9746 5.965 36.9446 5.885C36.8346 5.625 36.7046 5.405 36.5546 5.225C36.4046 5.035 36.2046 4.885 35.9546 4.775C35.8946 4.755 35.8346 4.74 35.7746 4.73C35.7146 4.71 35.6496 4.69 35.5796 4.67C35.4996 4.65 35.4146 4.645 35.3246 4.655C35.2346 4.655 35.1446 4.655 35.0546 4.655C35.0246 4.675 34.9896 4.685 34.9496 4.685C34.9096 4.675 34.8746 4.675 34.8446 4.685C34.7746 4.705 34.7046 4.725 34.6346 4.745C34.5746 4.755 34.5196 4.775 34.4696 4.805C34.2196 4.915 34.0146 5.075 33.8546 5.285C33.7046 5.485 33.5846 5.72 33.4946 5.99C33.4646 6.09 33.4396 6.195 33.4196 6.305C33.4096 6.415 33.3946 6.525 33.3746 6.635C33.3646 6.685 33.3596 6.735 33.3596 6.785C33.3596 6.835 33.3596 6.885 33.3596 6.935C33.3396 7.005 33.3296 7.11 33.3296 7.25C33.3396 7.39 33.3546 7.495 33.3746 7.565V7.7C33.3946 7.78 33.4096 7.86 33.4196 7.94C33.4296 8.01 33.4446 8.085 33.4646 8.165C33.5646 8.465 33.6696 8.71 33.7796 8.9C33.8996 9.08 34.0846 9.245 34.3346 9.395C34.4046 9.445 34.4796 9.485 34.5596 9.515C34.6496 9.545 34.7396 9.57 34.8296 9.59C34.8696 9.6 34.9046 9.605 34.9346 9.605C34.9646 9.595 34.9996 9.595 35.0396 9.605C35.0796 9.615 35.1196 9.625 35.1596 9.635C35.2096 9.635 35.2546 9.63 35.2946 9.62H35.4146C35.4946 9.6 35.5746 9.585 35.6546 9.575C35.7346 9.565 35.8096 9.545 35.8796 9.515C36.1396 9.415 36.3496 9.28 36.5096 9.11C36.6696 8.94 36.8046 8.73 36.9146 8.48C36.9546 8.38 36.9846 8.28 37.0046 8.18C37.0246 8.08 37.0496 7.975 37.0796 7.865C37.0896 7.825 37.0946 7.79 37.0946 7.76C37.0946 7.72 37.0996 7.68 37.1096 7.64C37.1096 7.59 37.1096 7.545 37.1096 7.505C37.1096 7.455 37.1146 7.405 37.1246 7.355ZM39.9645 3.275H41.8845C43.3945 3.275 44.4445 3.36 45.0345 3.53C45.6245 3.7 46.0545 4.05 46.3245 4.58C46.7245 5.29 46.5895 5.965 45.9195 6.605L45.4695 7.01L46.0245 7.37C46.4245 7.63 46.6845 7.975 46.8045 8.405C46.9245 8.825 46.8795 9.245 46.6695 9.665C46.4695 10.085 46.1345 10.41 45.6645 10.64C45.2645 10.84 44.2445 10.96 42.6045 11C40.9745 11.03 40.1295 11.01 40.0695 10.94C40.0295 10.91 39.9995 10.72 39.9795 10.37C39.9695 10.01 39.9645 9.54 39.9645 8.96C39.9645 8.37 39.9645 7.735 39.9645 7.055V3.275ZM43.1895 4.79C42.9895 4.79 42.7395 4.805 42.4395 4.835H41.9295V5.6C41.9295 5.97 41.9445 6.2 41.9745 6.29C42.0145 6.37 42.1195 6.425 42.2895 6.455C43.2295 6.585 43.8845 6.435 44.2545 6.005C44.4545 5.795 44.5545 5.65 44.5545 5.57C44.5545 5.49 44.4895 5.345 44.3595 5.135C44.1895 4.935 43.7995 4.82 43.1895 4.79ZM41.9295 7.76V8.72V9.635H42.9945C43.7345 9.635 44.2045 9.56 44.4045 9.41C44.6045 9.26 44.7045 9.03 44.7045 8.72C44.7045 8.35 44.5845 8.1 44.3445 7.97C44.1145 7.83 43.6645 7.76 42.9945 7.76H41.9295ZM49.4864 7.76V9.635H50.5514C51.2914 9.635 51.7614 9.56 51.9614 9.41C52.1614 9.26 52.2614 9.03 52.2614 8.72C52.2614 8.35 52.1414 8.1 51.9014 7.97C51.6714 7.83 51.2214 7.76 50.5514 7.76H49.4864ZM47.5214 7.055V4.805V3.29V3.275H49.4864V5.6C49.4864 5.97 49.5014 6.2 49.5314 6.29C49.5714 6.37 49.9214 6.37 50.5814 6.29C51.6214 6.32 52.3714 6.4 52.8314 6.53C53.4214 6.7 53.8514 7.05 54.1214 7.58C54.2714 7.84 54.3464 8.095 54.3464 8.345C54.3464 8.365 54.3514 8.38 54.3614 8.39C54.4814 8.82 54.4364 9.245 54.2264 9.665C54.0264 10.085 53.6914 10.41 53.2214 10.64C52.8214 10.84 51.8014 10.96 50.1614 11C48.5314 11.03 47.6864 11.01 47.6264 10.94C47.5864 10.91 47.5564 10.72 47.5364 10.37C47.5264 10.01 47.5214 9.54 47.5214 8.96C47.5214 8.37 47.5214 7.735 47.5214 7.055ZM58.826 3.275H59.846C60.566 3.275 60.926 3.34 60.926 3.47V4.97L60.971 6.14H61.901C62.191 6.14 62.446 6.03 62.666 5.81C62.896 5.59 63.041 5.105 63.101 4.355C63.101 4.075 63.106 3.835 63.116 3.635C63.126 3.425 63.151 3.32 63.191 3.32C63.191 3.29 63.531 3.275 64.211 3.275H65.246L65.156 4.475C65.116 4.935 65.066 5.3 65.006 5.57C64.956 5.84 64.891 6.045 64.811 6.185C64.741 6.325 64.631 6.45 64.481 6.56L64.166 6.71L64.661 7.085C64.751 7.165 64.831 7.24 64.901 7.31C64.981 7.37 65.046 7.45 65.096 7.55C65.156 7.65 65.201 7.755 65.231 7.865C65.271 7.965 65.306 8.095 65.336 8.255C65.366 8.405 65.396 8.575 65.426 8.765C65.456 8.955 65.471 9.18 65.471 9.44C65.491 9.72 65.516 10.005 65.546 10.295C65.576 10.585 65.591 10.755 65.591 10.805C65.621 10.855 65.636 10.895 65.636 10.925C65.636 11.025 65.281 11.06 64.571 11.03L63.506 11L63.416 9.74C63.356 8.92 63.191 8.39 62.921 8.15C62.661 7.9 62.291 7.8 61.811 7.85H60.881V8.66C60.881 8.89 60.871 9.145 60.851 9.425C60.841 9.695 60.836 9.945 60.836 10.175V11.03H58.811L58.826 3.275ZM73.9326 3.05C74.7426 3.03 75.4176 3.15 75.9576 3.41C76.5076 3.67 76.9426 4.04 77.2626 4.52C77.4226 4.76 77.5426 5.035 77.6226 5.345C77.6426 5.395 77.6576 5.46 77.6676 5.54C77.6876 5.62 77.6876 5.69 77.6676 5.75C77.6276 5.86 77.5576 5.925 77.4576 5.945C77.3576 5.955 77.2376 5.96 77.0976 5.96H76.3176C76.2276 5.96 76.1326 5.96 76.0326 5.96C75.9426 5.96 75.8676 5.94 75.8076 5.9C75.7276 5.86 75.6726 5.8 75.6426 5.72C75.6126 5.63 75.5726 5.54 75.5226 5.45C75.4626 5.34 75.3976 5.24 75.3276 5.15C75.2576 5.06 75.1776 4.98 75.0876 4.91C74.9476 4.82 74.7926 4.75 74.6226 4.7C74.5626 4.68 74.5026 4.67 74.4426 4.67C74.3826 4.67 74.3276 4.66 74.2776 4.64H74.1276C73.9276 4.64 73.7676 4.66 73.6476 4.7C73.3576 4.79 73.1226 4.93 72.9426 5.12C72.7626 5.3 72.6176 5.52 72.5076 5.78C72.4576 5.89 72.4176 6.01 72.3876 6.14C72.3676 6.26 72.3426 6.39 72.3126 6.53C72.3026 6.57 72.2976 6.61 72.2976 6.65C72.2976 6.69 72.2926 6.73 72.2826 6.77C72.2626 6.87 72.2526 7.01 72.2526 7.19C72.2626 7.37 72.2776 7.51 72.2976 7.61C72.2976 7.69 72.3026 7.745 72.3126 7.775C72.3326 7.845 72.3426 7.915 72.3426 7.985C72.3526 8.055 72.3676 8.125 72.3876 8.195C72.4676 8.425 72.5626 8.635 72.6726 8.825C72.7826 9.015 72.9226 9.175 73.0926 9.305C73.1326 9.335 73.1926 9.37 73.2726 9.41C73.3826 9.48 73.4926 9.525 73.6026 9.545C73.7226 9.565 73.8676 9.585 74.0376 9.605C74.0576 9.605 74.0876 9.605 74.1276 9.605C74.1676 9.605 74.1976 9.6 74.2176 9.59H74.3526C74.4226 9.57 74.4876 9.555 74.5476 9.545C74.6176 9.525 74.6826 9.505 74.7426 9.485C75.0426 9.355 75.2726 9.165 75.4326 8.915C75.4726 8.865 75.5076 8.81 75.5376 8.75C75.5676 8.68 75.5926 8.62 75.6126 8.57C75.6526 8.46 75.6876 8.365 75.7176 8.285C75.7476 8.195 75.8176 8.125 75.9276 8.075C76.0176 8.035 76.1626 8.02 76.3626 8.03C76.5626 8.03 76.7276 8.03 76.8576 8.03C76.9276 8.03 76.9976 8.03 77.0676 8.03C77.1476 8.02 77.2126 8.025 77.2626 8.045H77.3826C77.4226 8.055 77.4626 8.065 77.5026 8.075C77.5426 8.075 77.5726 8.085 77.5926 8.105C77.6426 8.145 77.6726 8.205 77.6826 8.285C77.7026 8.355 77.7026 8.43 77.6826 8.51C77.5926 8.84 77.4826 9.135 77.3526 9.395C76.9426 10.165 76.2876 10.7 75.3876 11C75.2876 11.03 75.1826 11.05 75.0726 11.06C74.9626 11.08 74.8526 11.105 74.7426 11.135C74.6826 11.145 74.6226 11.15 74.5626 11.15C74.5026 11.15 74.4426 11.155 74.3826 11.165H74.2176C74.1676 11.185 74.0926 11.19 73.9926 11.18C73.8926 11.18 73.8176 11.175 73.7676 11.165C73.6876 11.145 73.6126 11.135 73.5426 11.135C73.4826 11.145 73.4176 11.14 73.3476 11.12C73.2976 11.11 73.2476 11.1 73.1976 11.09C73.1476 11.09 73.0976 11.085 73.0476 11.075C72.9376 11.045 72.8326 11.015 72.7326 10.985C72.6326 10.955 72.5376 10.92 72.4476 10.88C71.9776 10.68 71.5826 10.425 71.2626 10.115C70.9426 9.795 70.6826 9.4 70.4826 8.93C70.4326 8.84 70.3926 8.745 70.3626 8.645C70.3326 8.535 70.3026 8.425 70.2726 8.315C70.2626 8.275 70.2576 8.24 70.2576 8.21C70.2576 8.17 70.2476 8.125 70.2276 8.075C70.2076 8.005 70.1976 7.935 70.1976 7.865C70.1976 7.785 70.1876 7.71 70.1676 7.64V7.385C70.1476 7.335 70.1376 7.28 70.1376 7.22C70.1376 7.15 70.1476 7.09 70.1676 7.04C70.1776 6.99 70.1776 6.945 70.1676 6.905C70.1576 6.865 70.1576 6.825 70.1676 6.785C70.1876 6.715 70.1926 6.65 70.1826 6.59C70.1826 6.53 70.1926 6.47 70.2126 6.41C70.2626 6.23 70.3026 6.06 70.3326 5.9C70.3626 5.73 70.4076 5.565 70.4676 5.405C70.6876 4.895 70.9626 4.47 71.2926 4.13C71.6326 3.79 72.0626 3.515 72.5826 3.305C72.7226 3.245 72.8676 3.205 73.0176 3.185C73.1676 3.155 73.3226 3.12 73.4826 3.08C73.5626 3.07 73.6376 3.065 73.7076 3.065C73.7776 3.065 73.8526 3.06 73.9326 3.05ZM86.0409 7.055C86.0609 7.135 86.0609 7.225 86.0409 7.325C86.0209 7.425 85.9859 7.49 85.9359 7.52C85.8859 7.56 85.8109 7.59 85.7109 7.61C85.6209 7.62 85.5159 7.63 85.3959 7.64C85.2859 7.64 85.1709 7.64 85.0509 7.64C84.9409 7.63 84.8409 7.625 84.7509 7.625H81.0909C81.0209 7.625 80.9509 7.625 80.8809 7.625C80.8209 7.625 80.7659 7.635 80.7159 7.655C80.6359 7.695 80.5859 7.735 80.5659 7.775C80.5459 7.795 80.5259 7.835 80.5059 7.895C80.4859 7.945 80.4809 7.995 80.4909 8.045C80.5109 8.105 80.5209 8.165 80.5209 8.225C80.5309 8.275 80.5459 8.33 80.5659 8.39C80.6459 8.63 80.7409 8.83 80.8509 8.99C80.9709 9.14 81.1309 9.275 81.3309 9.395C81.4109 9.445 81.4909 9.48 81.5709 9.5C81.6609 9.51 81.7509 9.53 81.8409 9.56C81.9209 9.58 82.0309 9.595 82.1709 9.605C82.3109 9.615 82.4309 9.61 82.5309 9.59H82.6659C82.7659 9.57 82.8559 9.55 82.9359 9.53C83.0259 9.5 83.1109 9.47 83.1909 9.44C83.2909 9.39 83.4009 9.325 83.5209 9.245C83.6509 9.165 83.7459 9.085 83.8059 9.005C83.8559 8.935 83.9059 8.87 83.9559 8.81C84.0159 8.74 84.0859 8.69 84.1659 8.66C84.2659 8.61 84.3909 8.59 84.5409 8.6C84.7009 8.6 84.8459 8.6 84.9759 8.6C85.0359 8.6 85.0959 8.6 85.1559 8.6C85.2259 8.59 85.2859 8.595 85.3359 8.615H85.4859C85.5859 8.635 85.6559 8.66 85.6959 8.69C85.7359 8.71 85.7559 8.755 85.7559 8.825C85.7659 8.895 85.7609 8.955 85.7409 9.005C85.6909 9.145 85.6359 9.27 85.5759 9.38C85.5159 9.49 85.4459 9.6 85.3659 9.71C85.1459 10.04 84.8959 10.305 84.6159 10.505C84.3359 10.705 83.9859 10.875 83.5659 11.015C83.4559 11.055 83.3459 11.08 83.2359 11.09C83.1259 11.1 83.0109 11.12 82.8909 11.15C82.8509 11.16 82.8059 11.16 82.7559 11.15C82.7159 11.15 82.6759 11.155 82.6359 11.165H82.4709C82.4209 11.185 82.3609 11.19 82.2909 11.18C82.2309 11.18 82.1759 11.175 82.1259 11.165C82.0459 11.155 81.9759 11.155 81.9159 11.165C81.8559 11.175 81.7909 11.17 81.7209 11.15C81.6709 11.13 81.6159 11.12 81.5559 11.12C81.4959 11.12 81.4409 11.11 81.3909 11.09C81.2809 11.07 81.1709 11.045 81.0609 11.015C80.9509 10.995 80.8509 10.96 80.7609 10.91C80.6509 10.87 80.5459 10.835 80.4459 10.805C80.3559 10.765 80.2709 10.72 80.1909 10.67C79.8709 10.47 79.5859 10.24 79.3359 9.98C79.0859 9.71 78.8809 9.4 78.7209 9.05C78.6709 8.94 78.6309 8.83 78.6009 8.72C78.5709 8.6 78.5309 8.48 78.4809 8.36C78.4709 8.32 78.4659 8.285 78.4659 8.255C78.4659 8.215 78.4609 8.175 78.4509 8.135C78.4109 8.015 78.3859 7.885 78.3759 7.745C78.3659 7.605 78.3559 7.465 78.3459 7.325C78.3459 7.275 78.3409 7.22 78.3309 7.16C78.3309 7.1 78.3359 7.045 78.3459 6.995V6.815L78.3909 6.455C78.4309 6.285 78.4659 6.12 78.4959 5.96C78.5259 5.8 78.5709 5.65 78.6309 5.51C79.0609 4.47 79.7909 3.735 80.8209 3.305C80.9609 3.245 81.1009 3.205 81.2409 3.185C81.3909 3.155 81.5459 3.12 81.7059 3.08C81.7859 3.07 81.8609 3.065 81.9309 3.065C82.0009 3.065 82.0759 3.06 82.1559 3.05C82.6659 3.04 83.1009 3.1 83.4609 3.23C83.8309 3.35 84.1609 3.51 84.4509 3.71C84.5409 3.77 84.6309 3.84 84.7209 3.92C84.8109 3.99 84.8909 4.065 84.9609 4.145C84.9909 4.195 85.0309 4.235 85.0809 4.265C85.1609 4.375 85.2359 4.49 85.3059 4.61C85.3759 4.72 85.4509 4.835 85.5309 4.955C85.5809 5.045 85.6209 5.14 85.6509 5.24C85.6909 5.33 85.7309 5.43 85.7709 5.54C85.8209 5.67 85.8609 5.805 85.8909 5.945C85.9209 6.085 85.9559 6.225 85.9959 6.365C86.0159 6.445 86.0209 6.535 86.0109 6.635C86.0109 6.725 86.0209 6.81 86.0409 6.89V7.055ZM83.7909 6.17C83.8609 6.07 83.8659 5.95 83.8059 5.81C83.7559 5.66 83.7159 5.55 83.6859 5.48C83.5459 5.21 83.3609 5.005 83.1309 4.865C82.9009 4.715 82.5809 4.635 82.1709 4.625C82.1409 4.645 82.1059 4.65 82.0659 4.64C82.0259 4.63 81.9909 4.63 81.9609 4.64C81.9109 4.66 81.8559 4.675 81.7959 4.685C81.7359 4.685 81.6809 4.695 81.6309 4.715C81.1909 4.855 80.8659 5.13 80.6559 5.54C80.6359 5.58 80.6109 5.635 80.5809 5.705C80.5609 5.765 80.5459 5.83 80.5359 5.9C80.5259 5.96 80.5259 6.02 80.5359 6.08C80.5559 6.14 80.5909 6.19 80.6409 6.23C80.7209 6.28 80.8309 6.305 80.9709 6.305C81.1109 6.305 81.2459 6.305 81.3759 6.305H83.0409C83.1809 6.305 83.3259 6.305 83.4759 6.305C83.6359 6.295 83.7409 6.25 83.7909 6.17ZM91.8942 0.26H93.9042V1.22V2.165H91.8492C91.6292 2.165 91.4242 2.165 91.2342 2.165C91.0442 2.165 90.8692 2.175 90.7092 2.195C90.5492 2.215 90.3992 2.225 90.2592 2.225C90.1192 2.225 89.9942 2.235 89.8842 2.255C89.7742 2.275 89.6842 2.295 89.6142 2.315C89.5442 2.325 89.4942 2.35 89.4642 2.39C89.2542 2.49 89.0592 2.7 88.8792 3.02C88.6992 3.34 88.5742 3.695 88.5042 4.085L88.3992 4.61L88.7742 4.295C89.3342 3.765 90.0742 3.52 90.9942 3.56C91.9142 3.59 92.6742 3.885 93.2742 4.445C93.9742 5.085 94.3142 5.98 94.2942 7.13C94.2842 8.27 93.9242 9.195 93.2142 9.905C92.7242 10.435 92.0742 10.78 91.2642 10.94C90.4542 11.1 89.6942 11.07 88.9842 10.85C88.3442 10.61 87.8192 10.21 87.4092 9.65C87.0092 9.08 86.7292 8.37 86.5692 7.52C86.4092 6.67 86.3842 5.7 86.4942 4.61C86.6042 3.55 86.7292 2.825 86.8692 2.435C87.0092 2.045 87.2742 1.655 87.6642 1.265C87.9742 0.984999 88.2792 0.774999 88.5792 0.634999C88.8792 0.494999 89.2692 0.399999 89.7492 0.349999C90.2292 0.29 90.9442 0.26 91.8942 0.26ZM90.2592 5.195C90.1892 5.195 90.1142 5.205 90.0342 5.225C89.9642 5.235 89.9142 5.26 89.8842 5.3C89.2442 5.47 88.8742 5.91 88.7742 6.62C88.5642 7.68 88.8192 8.46 89.5392 8.96C90.2592 9.45 90.9542 9.34 91.6242 8.63C91.7342 8.53 91.8142 8.435 91.8642 8.345C91.9242 8.255 91.9792 8.16 92.0292 8.06C92.0792 7.95 92.1142 7.835 92.1342 7.715C92.1542 7.585 92.1642 7.45 92.1642 7.31C92.1642 7.17 92.1442 7.01 92.1042 6.83C92.1042 6.65 92.0692 6.475 91.9992 6.305C91.9292 6.125 91.8292 5.965 91.6992 5.825C91.5792 5.685 91.4392 5.565 91.2792 5.465C91.1292 5.355 90.9642 5.285 90.7842 5.255C90.6042 5.215 90.4292 5.195 90.2592 5.195ZM102.521 7.055C102.541 7.135 102.541 7.225 102.521 7.325C102.501 7.425 102.466 7.49 102.416 7.52C102.366 7.56 102.291 7.59 102.191 7.61C102.101 7.62 101.996 7.63 101.876 7.64C101.766 7.64 101.651 7.64 101.531 7.64C101.421 7.63 101.321 7.625 101.231 7.625H97.571C97.501 7.625 97.431 7.625 97.361 7.625C97.301 7.625 97.246 7.635 97.196 7.655C97.116 7.695 97.066 7.735 97.046 7.775C97.026 7.795 97.006 7.835 96.986 7.895C96.966 7.945 96.961 7.995 96.971 8.045C96.991 8.105 97.001 8.165 97.001 8.225C97.011 8.275 97.026 8.33 97.046 8.39C97.126 8.63 97.221 8.83 97.331 8.99C97.451 9.14 97.611 9.275 97.811 9.395C97.891 9.445 97.971 9.48 98.051 9.5C98.141 9.51 98.231 9.53 98.321 9.56C98.401 9.58 98.511 9.595 98.651 9.605C98.791 9.615 98.911 9.61 99.011 9.59H99.146C99.246 9.57 99.336 9.55 99.416 9.53C99.506 9.5 99.591 9.47 99.671 9.44C99.771 9.39 99.881 9.325 100.001 9.245C100.131 9.165 100.226 9.085 100.286 9.005C100.336 8.935 100.386 8.87 100.436 8.81C100.496 8.74 100.566 8.69 100.646 8.66C100.746 8.61 100.871 8.59 101.021 8.6C101.181 8.6 101.326 8.6 101.456 8.6C101.516 8.6 101.576 8.6 101.636 8.6C101.706 8.59 101.766 8.595 101.816 8.615H101.966C102.066 8.635 102.136 8.66 102.176 8.69C102.216 8.71 102.236 8.755 102.236 8.825C102.246 8.895 102.241 8.955 102.221 9.005C102.171 9.145 102.116 9.27 102.056 9.38C101.996 9.49 101.926 9.6 101.846 9.71C101.626 10.04 101.376 10.305 101.096 10.505C100.816 10.705 100.466 10.875 100.046 11.015C99.936 11.055 99.826 11.08 99.716 11.09C99.606 11.1 99.491 11.12 99.371 11.15C99.331 11.16 99.286 11.16 99.236 11.15C99.196 11.15 99.156 11.155 99.116 11.165H98.951C98.901 11.185 98.841 11.19 98.771 11.18C98.711 11.18 98.656 11.175 98.606 11.165C98.526 11.155 98.456 11.155 98.396 11.165C98.336 11.175 98.271 11.17 98.201 11.15C98.151 11.13 98.096 11.12 98.036 11.12C97.976 11.12 97.921 11.11 97.871 11.09C97.761 11.07 97.651 11.045 97.541 11.015C97.431 10.995 97.331 10.96 97.241 10.91C97.131 10.87 97.026 10.835 96.926 10.805C96.836 10.765 96.751 10.72 96.671 10.67C96.351 10.47 96.066 10.24 95.816 9.98C95.566 9.71 95.361 9.4 95.201 9.05C95.151 8.94 95.111 8.83 95.081 8.72C95.051 8.6 95.011 8.48 94.961 8.36C94.951 8.32 94.946 8.285 94.946 8.255C94.946 8.215 94.941 8.175 94.931 8.135C94.891 8.015 94.866 7.885 94.856 7.745C94.846 7.605 94.836 7.465 94.826 7.325C94.826 7.275 94.821 7.22 94.811 7.16C94.811 7.1 94.816 7.045 94.826 6.995V6.815L94.871 6.455C94.911 6.285 94.946 6.12 94.976 5.96C95.006 5.8 95.051 5.65 95.111 5.51C95.541 4.47 96.271 3.735 97.301 3.305C97.441 3.245 97.581 3.205 97.721 3.185C97.871 3.155 98.026 3.12 98.186 3.08C98.266 3.07 98.341 3.065 98.411 3.065C98.481 3.065 98.556 3.06 98.636 3.05C99.146 3.04 99.581 3.1 99.941 3.23C100.311 3.35 100.641 3.51 100.931 3.71C101.021 3.77 101.111 3.84 101.201 3.92C101.291 3.99 101.371 4.065 101.441 4.145C101.471 4.195 101.511 4.235 101.561 4.265C101.641 4.375 101.716 4.49 101.786 4.61C101.856 4.72 101.931 4.835 102.011 4.955C102.061 5.045 102.101 5.14 102.131 5.24C102.171 5.33 102.211 5.43 102.251 5.54C102.301 5.67 102.341 5.805 102.371 5.945C102.401 6.085 102.436 6.225 102.476 6.365C102.496 6.445 102.501 6.535 102.491 6.635C102.491 6.725 102.501 6.81 102.521 6.89V7.055ZM100.271 6.17C100.341 6.07 100.346 5.95 100.286 5.81C100.236 5.66 100.196 5.55 100.166 5.48C100.026 5.21 99.841 5.005 99.611 4.865C99.381 4.715 99.061 4.635 98.651 4.625C98.621 4.645 98.586 4.65 98.546 4.64C98.506 4.63 98.471 4.63 98.441 4.64C98.391 4.66 98.336 4.675 98.276 4.685C98.216 4.685 98.161 4.695 98.111 4.715C97.671 4.855 97.346 5.13 97.136 5.54C97.116 5.58 97.091 5.635 97.061 5.705C97.041 5.765 97.026 5.83 97.016 5.9C97.006 5.96 97.006 6.02 97.016 6.08C97.036 6.14 97.071 6.19 97.121 6.23C97.201 6.28 97.311 6.305 97.451 6.305C97.591 6.305 97.726 6.305 97.856 6.305H99.521C99.661 6.305 99.806 6.305 99.956 6.305C100.116 6.295 100.221 6.25 100.271 6.17ZM111.769 3.065C112.369 3.045 112.869 3.13 113.269 3.32C113.669 3.51 113.984 3.79 114.214 4.16C114.284 4.27 114.339 4.39 114.379 4.52C114.419 4.64 114.459 4.765 114.499 4.895C114.519 4.975 114.529 5.05 114.529 5.12C114.539 5.19 114.554 5.26 114.574 5.33C114.574 5.39 114.579 5.43 114.589 5.45C114.609 5.59 114.619 5.735 114.619 5.885C114.619 6.035 114.619 6.18 114.619 6.32V7.655V10.085C114.619 10.275 114.614 10.46 114.604 10.64C114.604 10.81 114.534 10.92 114.394 10.97C114.334 10.99 114.264 11 114.184 11C114.104 11 114.024 11 113.944 11H113.134C113.014 11 112.904 10.995 112.804 10.985C112.714 10.965 112.644 10.92 112.594 10.85C112.554 10.79 112.529 10.715 112.519 10.625C112.519 10.525 112.519 10.42 112.519 10.31V9.26V7.025C112.519 6.655 112.504 6.315 112.474 6.005C112.444 5.685 112.354 5.415 112.204 5.195C112.064 4.995 111.859 4.855 111.589 4.775C111.539 4.755 111.484 4.745 111.424 4.745C111.374 4.745 111.319 4.735 111.259 4.715C111.209 4.705 111.144 4.705 111.064 4.715C110.994 4.715 110.939 4.72 110.899 4.73C110.859 4.74 110.824 4.745 110.794 4.745C110.764 4.745 110.734 4.75 110.704 4.76C110.474 4.82 110.289 4.9 110.149 5C109.829 5.23 109.639 5.565 109.579 6.005C109.519 6.445 109.489 6.94 109.489 7.49V9.365V10.28C109.489 10.37 109.489 10.46 109.489 10.55C109.489 10.64 109.474 10.715 109.444 10.775C109.394 10.885 109.314 10.95 109.204 10.97C109.094 10.99 108.959 11 108.799 11H108.049C107.939 11 107.829 10.995 107.719 10.985C107.609 10.975 107.529 10.94 107.479 10.88C107.409 10.79 107.374 10.66 107.374 10.49C107.384 10.32 107.389 10.16 107.389 10.01V7.97V4.67V3.905C107.389 3.795 107.389 3.695 107.389 3.605C107.399 3.515 107.429 3.44 107.479 3.38C107.499 3.35 107.529 3.33 107.569 3.32C107.619 3.3 107.669 3.285 107.719 3.275H107.794C107.844 3.265 107.894 3.26 107.944 3.26C108.004 3.26 108.059 3.26 108.109 3.26H108.739C108.819 3.26 108.894 3.265 108.964 3.275C109.044 3.275 109.114 3.285 109.174 3.305C109.244 3.335 109.289 3.38 109.309 3.44C109.339 3.5 109.364 3.57 109.384 3.65C109.394 3.69 109.394 3.725 109.384 3.755C109.384 3.785 109.394 3.815 109.414 3.845C109.434 3.895 109.449 3.925 109.459 3.935C109.479 3.945 109.504 3.96 109.534 3.98C109.644 3.99 109.734 3.955 109.804 3.875C109.874 3.785 109.949 3.715 110.029 3.665C110.299 3.465 110.599 3.305 110.929 3.185C111.019 3.155 111.109 3.135 111.199 3.125C111.299 3.115 111.404 3.1 111.514 3.08C111.544 3.07 111.589 3.07 111.649 3.08C111.709 3.08 111.749 3.075 111.769 3.065ZM123.826 7.04C123.836 7.1 123.841 7.19 123.841 7.31C123.841 7.43 123.831 7.515 123.811 7.565V7.76C123.781 7.87 123.761 7.975 123.751 8.075C123.751 8.175 123.736 8.275 123.706 8.375C123.686 8.465 123.666 8.56 123.646 8.66C123.626 8.75 123.596 8.84 123.556 8.93C123.486 9.1 123.416 9.26 123.346 9.41C123.276 9.55 123.196 9.69 123.106 9.83C123.046 9.92 122.981 10.005 122.911 10.085C122.851 10.155 122.781 10.23 122.701 10.31L122.596 10.415C122.546 10.465 122.491 10.51 122.431 10.55C122.381 10.59 122.331 10.63 122.281 10.67C122.201 10.73 122.111 10.785 122.011 10.835C121.921 10.875 121.826 10.92 121.726 10.97C121.626 11.02 121.521 11.055 121.411 11.075C121.311 11.095 121.206 11.115 121.096 11.135C121.036 11.155 120.971 11.165 120.901 11.165C120.841 11.165 120.776 11.175 120.706 11.195H120.571C120.491 11.215 120.416 11.215 120.346 11.195H120.196C120.136 11.175 120.071 11.165 120.001 11.165C119.941 11.175 119.881 11.17 119.821 11.15C119.661 11.1 119.506 11.055 119.356 11.015C119.216 10.975 119.086 10.915 118.966 10.835C118.896 10.795 118.831 10.755 118.771 10.715C118.711 10.665 118.646 10.615 118.576 10.565C118.536 10.535 118.476 10.49 118.396 10.43C118.316 10.37 118.246 10.365 118.186 10.415C118.136 10.445 118.111 10.485 118.111 10.535C118.111 10.575 118.101 10.625 118.081 10.685C118.061 10.785 118.051 10.9 118.051 11.03C118.061 11.16 118.066 11.28 118.066 11.39V12.92C118.066 13.05 118.061 13.175 118.051 13.295C118.051 13.425 118.026 13.53 117.976 13.61C117.946 13.65 117.891 13.68 117.811 13.7C117.731 13.72 117.641 13.73 117.541 13.73C117.441 13.74 117.341 13.74 117.241 13.73C117.141 13.73 117.056 13.73 116.986 13.73H116.581C116.551 13.73 116.516 13.73 116.476 13.73C116.436 13.73 116.401 13.725 116.371 13.715H116.251C116.081 13.665 115.991 13.565 115.981 13.415C115.971 13.275 115.966 13.105 115.966 12.905V4.1C115.966 3.99 115.961 3.875 115.951 3.755C115.951 3.625 115.976 3.525 116.026 3.455C116.066 3.385 116.121 3.34 116.191 3.32C116.241 3.3 116.301 3.29 116.371 3.29C116.451 3.29 116.526 3.29 116.596 3.29H117.316C117.416 3.29 117.511 3.29 117.601 3.29C117.691 3.29 117.766 3.315 117.826 3.365C117.896 3.415 117.931 3.48 117.931 3.56C117.941 3.63 117.966 3.705 118.006 3.785C118.016 3.815 118.026 3.84 118.036 3.86C118.056 3.87 118.076 3.885 118.096 3.905C118.206 3.915 118.296 3.885 118.366 3.815C118.436 3.745 118.506 3.685 118.576 3.635C118.706 3.545 118.841 3.465 118.981 3.395C119.121 3.315 119.276 3.25 119.446 3.2C119.526 3.17 119.611 3.15 119.701 3.14C119.801 3.13 119.896 3.115 119.986 3.095C120.026 3.085 120.066 3.085 120.106 3.095C120.156 3.105 120.196 3.1 120.226 3.08C120.796 3.06 121.276 3.14 121.666 3.32C122.066 3.49 122.406 3.715 122.686 3.995C122.736 4.045 122.781 4.095 122.821 4.145C122.861 4.185 122.901 4.23 122.941 4.28C123.011 4.37 123.071 4.46 123.121 4.55C123.181 4.64 123.236 4.73 123.286 4.82C123.306 4.84 123.316 4.865 123.316 4.895C123.326 4.925 123.341 4.96 123.361 5C123.421 5.1 123.476 5.22 123.526 5.36C123.546 5.42 123.566 5.485 123.586 5.555C123.606 5.615 123.626 5.68 123.646 5.75C123.686 5.87 123.711 5.995 123.721 6.125C123.741 6.255 123.766 6.39 123.796 6.53C123.796 6.58 123.796 6.635 123.796 6.695C123.806 6.755 123.816 6.815 123.826 6.875V7.04ZM121.711 7.385C121.721 7.335 121.726 7.27 121.726 7.19C121.726 7.1 121.721 7.03 121.711 6.98V6.845C121.691 6.785 121.681 6.72 121.681 6.65C121.681 6.58 121.671 6.51 121.651 6.44C121.631 6.34 121.611 6.245 121.591 6.155C121.571 6.055 121.541 5.965 121.501 5.885C121.381 5.565 121.226 5.31 121.036 5.12C120.846 4.93 120.576 4.79 120.226 4.7C120.146 4.68 120.056 4.67 119.956 4.67C119.866 4.67 119.776 4.67 119.686 4.67C119.646 4.68 119.611 4.685 119.581 4.685C119.551 4.685 119.516 4.69 119.476 4.7C119.406 4.72 119.336 4.74 119.266 4.76C119.206 4.77 119.146 4.79 119.086 4.82C118.826 4.93 118.621 5.1 118.471 5.33C118.331 5.56 118.216 5.815 118.126 6.095C118.106 6.175 118.091 6.26 118.081 6.35C118.071 6.43 118.056 6.51 118.036 6.59C118.026 6.63 118.021 6.695 118.021 6.785C118.001 6.825 117.996 6.875 118.006 6.935C118.016 6.985 118.016 7.035 118.006 7.085C117.986 7.145 117.986 7.2 118.006 7.25V7.43C118.006 7.48 118.006 7.525 118.006 7.565C118.006 7.605 118.016 7.645 118.036 7.685C118.036 7.755 118.041 7.81 118.051 7.85C118.061 7.91 118.071 7.97 118.081 8.03C118.091 8.09 118.106 8.15 118.126 8.21C118.216 8.5 118.321 8.74 118.441 8.93C118.571 9.11 118.751 9.27 118.981 9.41C119.121 9.49 119.286 9.555 119.476 9.605C119.516 9.615 119.551 9.62 119.581 9.62C119.611 9.61 119.646 9.61 119.686 9.62C119.726 9.63 119.786 9.64 119.866 9.65C119.946 9.65 120.011 9.645 120.061 9.635C120.141 9.615 120.221 9.6 120.301 9.59C120.391 9.57 120.476 9.545 120.556 9.515C120.796 9.415 120.991 9.275 121.141 9.095C121.291 8.915 121.416 8.705 121.516 8.465C121.566 8.345 121.601 8.22 121.621 8.09C121.641 7.96 121.666 7.825 121.696 7.685C121.696 7.635 121.696 7.585 121.696 7.535C121.706 7.485 121.711 7.435 121.711 7.385ZM132.171 7.055C132.191 7.135 132.191 7.225 132.171 7.325C132.151 7.425 132.116 7.49 132.066 7.52C132.016 7.56 131.941 7.59 131.841 7.61C131.751 7.62 131.646 7.63 131.526 7.64C131.416 7.64 131.301 7.64 131.181 7.64C131.071 7.63 130.971 7.625 130.881 7.625H127.221C127.151 7.625 127.081 7.625 127.011 7.625C126.951 7.625 126.896 7.635 126.846 7.655C126.766 7.695 126.716 7.735 126.696 7.775C126.676 7.795 126.656 7.835 126.636 7.895C126.616 7.945 126.611 7.995 126.621 8.045C126.641 8.105 126.651 8.165 126.651 8.225C126.661 8.275 126.676 8.33 126.696 8.39C126.776 8.63 126.871 8.83 126.981 8.99C127.101 9.14 127.261 9.275 127.461 9.395C127.541 9.445 127.621 9.48 127.701 9.5C127.791 9.51 127.881 9.53 127.971 9.56C128.051 9.58 128.161 9.595 128.301 9.605C128.441 9.615 128.561 9.61 128.661 9.59H128.796C128.896 9.57 128.986 9.55 129.066 9.53C129.156 9.5 129.241 9.47 129.321 9.44C129.421 9.39 129.531 9.325 129.651 9.245C129.781 9.165 129.876 9.085 129.936 9.005C129.986 8.935 130.036 8.87 130.086 8.81C130.146 8.74 130.216 8.69 130.296 8.66C130.396 8.61 130.521 8.59 130.671 8.6C130.831 8.6 130.976 8.6 131.106 8.6C131.166 8.6 131.226 8.6 131.286 8.6C131.356 8.59 131.416 8.595 131.466 8.615H131.616C131.716 8.635 131.786 8.66 131.826 8.69C131.866 8.71 131.886 8.755 131.886 8.825C131.896 8.895 131.891 8.955 131.871 9.005C131.821 9.145 131.766 9.27 131.706 9.38C131.646 9.49 131.576 9.6 131.496 9.71C131.276 10.04 131.026 10.305 130.746 10.505C130.466 10.705 130.116 10.875 129.696 11.015C129.586 11.055 129.476 11.08 129.366 11.09C129.256 11.1 129.141 11.12 129.021 11.15C128.981 11.16 128.936 11.16 128.886 11.15C128.846 11.15 128.806 11.155 128.766 11.165H128.601C128.551 11.185 128.491 11.19 128.421 11.18C128.361 11.18 128.306 11.175 128.256 11.165C128.176 11.155 128.106 11.155 128.046 11.165C127.986 11.175 127.921 11.17 127.851 11.15C127.801 11.13 127.746 11.12 127.686 11.12C127.626 11.12 127.571 11.11 127.521 11.09C127.411 11.07 127.301 11.045 127.191 11.015C127.081 10.995 126.981 10.96 126.891 10.91C126.781 10.87 126.676 10.835 126.576 10.805C126.486 10.765 126.401 10.72 126.321 10.67C126.001 10.47 125.716 10.24 125.466 9.98C125.216 9.71 125.011 9.4 124.851 9.05C124.801 8.94 124.761 8.83 124.731 8.72C124.701 8.6 124.661 8.48 124.611 8.36C124.601 8.32 124.596 8.285 124.596 8.255C124.596 8.215 124.591 8.175 124.581 8.135C124.541 8.015 124.516 7.885 124.506 7.745C124.496 7.605 124.486 7.465 124.476 7.325C124.476 7.275 124.471 7.22 124.461 7.16C124.461 7.1 124.466 7.045 124.476 6.995V6.815L124.521 6.455C124.561 6.285 124.596 6.12 124.626 5.96C124.656 5.8 124.701 5.65 124.761 5.51C125.191 4.47 125.921 3.735 126.951 3.305C127.091 3.245 127.231 3.205 127.371 3.185C127.521 3.155 127.676 3.12 127.836 3.08C127.916 3.07 127.991 3.065 128.061 3.065C128.131 3.065 128.206 3.06 128.286 3.05C128.796 3.04 129.231 3.1 129.591 3.23C129.961 3.35 130.291 3.51 130.581 3.71C130.671 3.77 130.761 3.84 130.851 3.92C130.941 3.99 131.021 4.065 131.091 4.145C131.121 4.195 131.161 4.235 131.211 4.265C131.291 4.375 131.366 4.49 131.436 4.61C131.506 4.72 131.581 4.835 131.661 4.955C131.711 5.045 131.751 5.14 131.781 5.24C131.821 5.33 131.861 5.43 131.901 5.54C131.951 5.67 131.991 5.805 132.021 5.945C132.051 6.085 132.086 6.225 132.126 6.365C132.146 6.445 132.151 6.535 132.141 6.635C132.141 6.725 132.151 6.81 132.171 6.89V7.055ZM129.921 6.17C129.991 6.07 129.996 5.95 129.936 5.81C129.886 5.66 129.846 5.55 129.816 5.48C129.676 5.21 129.491 5.005 129.261 4.865C129.031 4.715 128.711 4.635 128.301 4.625C128.271 4.645 128.236 4.65 128.196 4.64C128.156 4.63 128.121 4.63 128.091 4.64C128.041 4.66 127.986 4.675 127.926 4.685C127.866 4.685 127.811 4.695 127.761 4.715C127.321 4.855 126.996 5.13 126.786 5.54C126.766 5.58 126.741 5.635 126.711 5.705C126.691 5.765 126.676 5.83 126.666 5.9C126.656 5.96 126.656 6.02 126.666 6.08C126.686 6.14 126.721 6.19 126.771 6.23C126.851 6.28 126.961 6.305 127.101 6.305C127.241 6.305 127.376 6.305 127.506 6.305H129.171C129.311 6.305 129.456 6.305 129.606 6.305C129.766 6.295 129.871 6.25 129.921 6.17ZM140.889 6.815C140.909 6.875 140.919 6.96 140.919 7.07C140.919 7.18 140.909 7.265 140.889 7.325V7.475C140.869 7.555 140.859 7.635 140.859 7.715C140.869 7.795 140.864 7.875 140.844 7.955C140.824 8.025 140.809 8.09 140.799 8.15C140.789 8.21 140.779 8.275 140.769 8.345C140.729 8.455 140.694 8.57 140.664 8.69C140.634 8.8 140.594 8.905 140.544 9.005C140.334 9.485 140.059 9.875 139.719 10.175C139.379 10.475 138.969 10.725 138.489 10.925C138.369 10.975 138.244 11.01 138.114 11.03C137.994 11.06 137.869 11.09 137.739 11.12C137.689 11.14 137.634 11.15 137.574 11.15C137.514 11.15 137.459 11.155 137.409 11.165C137.379 11.165 137.344 11.165 137.304 11.165C137.274 11.175 137.244 11.18 137.214 11.18C137.164 11.19 137.084 11.195 136.974 11.195C136.864 11.205 136.779 11.2 136.719 11.18H136.569C136.519 11.17 136.464 11.165 136.404 11.165C136.354 11.175 136.304 11.17 136.254 11.15C136.214 11.14 136.174 11.135 136.134 11.135C136.104 11.135 136.064 11.13 136.014 11.12C135.914 11.09 135.814 11.065 135.714 11.045C135.614 11.025 135.519 10.995 135.429 10.955C135.309 10.915 135.194 10.875 135.084 10.835C134.984 10.795 134.879 10.745 134.769 10.685C134.419 10.475 134.119 10.23 133.869 9.95C133.619 9.67 133.409 9.335 133.239 8.945C133.189 8.855 133.149 8.76 133.119 8.66C133.099 8.56 133.074 8.455 133.044 8.345C133.024 8.295 133.014 8.25 133.014 8.21C133.014 8.17 133.004 8.125 132.984 8.075C132.964 7.995 132.954 7.915 132.954 7.835C132.954 7.745 132.944 7.66 132.924 7.58C132.914 7.53 132.909 7.485 132.909 7.445C132.909 7.405 132.909 7.36 132.909 7.31C132.889 7.25 132.879 7.165 132.879 7.055C132.889 6.945 132.904 6.86 132.924 6.8V6.695C132.934 6.645 132.934 6.595 132.924 6.545C132.924 6.485 132.934 6.43 132.954 6.38C132.964 6.33 132.969 6.285 132.969 6.245C132.969 6.195 132.979 6.145 132.999 6.095C133.039 5.965 133.074 5.84 133.104 5.72C133.134 5.59 133.174 5.465 133.224 5.345C133.404 4.935 133.619 4.595 133.869 4.325C134.119 4.045 134.424 3.79 134.784 3.56C134.884 3.51 134.989 3.465 135.099 3.425C135.209 3.385 135.319 3.34 135.429 3.29C135.559 3.24 135.694 3.205 135.834 3.185C135.974 3.165 136.119 3.135 136.269 3.095C136.349 3.085 136.424 3.08 136.494 3.08C136.564 3.08 136.634 3.075 136.704 3.065C137.284 3.055 137.784 3.115 138.204 3.245C138.634 3.375 139.014 3.555 139.344 3.785C139.454 3.865 139.564 3.955 139.674 4.055C139.794 4.145 139.894 4.245 139.974 4.355C140.054 4.455 140.124 4.555 140.184 4.655C140.254 4.755 140.324 4.86 140.394 4.97C140.464 5.08 140.519 5.2 140.559 5.33C140.599 5.45 140.644 5.58 140.694 5.72C140.724 5.8 140.749 5.885 140.769 5.975C140.789 6.065 140.809 6.155 140.829 6.245C140.839 6.285 140.844 6.325 140.844 6.365C140.844 6.405 140.849 6.445 140.859 6.485C140.879 6.535 140.884 6.59 140.874 6.65C140.864 6.71 140.869 6.765 140.889 6.815ZM138.789 7.355C138.799 7.305 138.804 7.235 138.804 7.145C138.804 7.045 138.799 6.97 138.789 6.92V6.8C138.769 6.75 138.759 6.695 138.759 6.635C138.759 6.575 138.754 6.52 138.744 6.47C138.744 6.43 138.739 6.4 138.729 6.38C138.709 6.3 138.689 6.22 138.669 6.14C138.659 6.05 138.639 5.965 138.609 5.885C138.499 5.625 138.369 5.405 138.219 5.225C138.069 5.035 137.869 4.885 137.619 4.775C137.559 4.755 137.499 4.74 137.439 4.73C137.379 4.71 137.314 4.69 137.244 4.67C137.164 4.65 137.079 4.645 136.989 4.655C136.899 4.655 136.809 4.655 136.719 4.655C136.689 4.675 136.654 4.685 136.614 4.685C136.574 4.675 136.539 4.675 136.509 4.685C136.439 4.705 136.369 4.725 136.299 4.745C136.239 4.755 136.184 4.775 136.134 4.805C135.884 4.915 135.679 5.075 135.519 5.285C135.369 5.485 135.249 5.72 135.159 5.99C135.129 6.09 135.104 6.195 135.084 6.305C135.074 6.415 135.059 6.525 135.039 6.635C135.029 6.685 135.024 6.735 135.024 6.785C135.024 6.835 135.024 6.885 135.024 6.935C135.004 7.005 134.994 7.11 134.994 7.25C135.004 7.39 135.019 7.495 135.039 7.565V7.7C135.059 7.78 135.074 7.86 135.084 7.94C135.094 8.01 135.109 8.085 135.129 8.165C135.229 8.465 135.334 8.71 135.444 8.9C135.564 9.08 135.749 9.245 135.999 9.395C136.069 9.445 136.144 9.485 136.224 9.515C136.314 9.545 136.404 9.57 136.494 9.59C136.534 9.6 136.569 9.605 136.599 9.605C136.629 9.595 136.664 9.595 136.704 9.605C136.744 9.615 136.784 9.625 136.824 9.635C136.874 9.635 136.919 9.63 136.959 9.62H137.079C137.159 9.6 137.239 9.585 137.319 9.575C137.399 9.565 137.474 9.545 137.544 9.515C137.804 9.415 138.014 9.28 138.174 9.11C138.334 8.94 138.469 8.73 138.579 8.48C138.619 8.38 138.649 8.28 138.669 8.18C138.689 8.08 138.714 7.975 138.744 7.865C138.754 7.825 138.759 7.79 138.759 7.76C138.759 7.72 138.764 7.68 138.774 7.64C138.774 7.59 138.774 7.545 138.774 7.505C138.774 7.455 138.779 7.405 138.789 7.355ZM146.894 0.26H148.904V1.22V2.165H146.849C146.629 2.165 146.424 2.165 146.234 2.165C146.044 2.165 145.869 2.175 145.709 2.195C145.549 2.215 145.399 2.225 145.259 2.225C145.119 2.225 144.994 2.235 144.884 2.255C144.774 2.275 144.684 2.295 144.614 2.315C144.544 2.325 144.494 2.35 144.464 2.39C144.254 2.49 144.059 2.7 143.879 3.02C143.699 3.34 143.574 3.695 143.504 4.085L143.399 4.61L143.774 4.295C144.334 3.765 145.074 3.52 145.994 3.56C146.914 3.59 147.674 3.885 148.274 4.445C148.974 5.085 149.314 5.98 149.294 7.13C149.284 8.27 148.924 9.195 148.214 9.905C147.724 10.435 147.074 10.78 146.264 10.94C145.454 11.1 144.694 11.07 143.984 10.85C143.344 10.61 142.819 10.21 142.409 9.65C142.009 9.08 141.729 8.37 141.569 7.52C141.409 6.67 141.384 5.7 141.494 4.61C141.604 3.55 141.729 2.825 141.869 2.435C142.009 2.045 142.274 1.655 142.664 1.265C142.974 0.984999 143.279 0.774999 143.579 0.634999C143.879 0.494999 144.269 0.399999 144.749 0.349999C145.229 0.29 145.944 0.26 146.894 0.26ZM145.259 5.195C145.189 5.195 145.114 5.205 145.034 5.225C144.964 5.235 144.914 5.26 144.884 5.3C144.244 5.47 143.874 5.91 143.774 6.62C143.564 7.68 143.819 8.46 144.539 8.96C145.259 9.45 145.954 9.34 146.624 8.63C146.734 8.53 146.814 8.435 146.864 8.345C146.924 8.255 146.979 8.16 147.029 8.06C147.079 7.95 147.114 7.835 147.134 7.715C147.154 7.585 147.164 7.45 147.164 7.31C147.164 7.17 147.144 7.01 147.104 6.83C147.104 6.65 147.069 6.475 146.999 6.305C146.929 6.125 146.829 5.965 146.699 5.825C146.579 5.685 146.439 5.565 146.279 5.465C146.129 5.355 145.964 5.285 145.784 5.255C145.604 5.215 145.429 5.195 145.259 5.195ZM158.046 7.04C158.056 7.1 158.061 7.19 158.061 7.31C158.061 7.43 158.051 7.515 158.031 7.565V7.76C158.001 7.87 157.981 7.975 157.971 8.075C157.971 8.175 157.956 8.275 157.926 8.375C157.906 8.465 157.886 8.56 157.866 8.66C157.846 8.75 157.816 8.84 157.776 8.93C157.706 9.1 157.636 9.26 157.566 9.41C157.496 9.55 157.416 9.69 157.326 9.83C157.266 9.92 157.201 10.005 157.131 10.085C157.071 10.155 157.001 10.23 156.921 10.31L156.816 10.415C156.766 10.465 156.711 10.51 156.651 10.55C156.601 10.59 156.551 10.63 156.501 10.67C156.421 10.73 156.331 10.785 156.231 10.835C156.141 10.875 156.046 10.92 155.946 10.97C155.846 11.02 155.741 11.055 155.631 11.075C155.531 11.095 155.426 11.115 155.316 11.135C155.256 11.155 155.191 11.165 155.121 11.165C155.061 11.165 154.996 11.175 154.926 11.195H154.791C154.711 11.215 154.636 11.215 154.566 11.195H154.416C154.356 11.175 154.291 11.165 154.221 11.165C154.161 11.175 154.101 11.17 154.041 11.15C153.881 11.1 153.726 11.055 153.576 11.015C153.436 10.975 153.306 10.915 153.186 10.835C153.116 10.795 153.051 10.755 152.991 10.715C152.931 10.665 152.866 10.615 152.796 10.565C152.756 10.535 152.696 10.49 152.616 10.43C152.536 10.37 152.466 10.365 152.406 10.415C152.356 10.445 152.331 10.485 152.331 10.535C152.331 10.575 152.321 10.625 152.301 10.685C152.281 10.785 152.271 10.9 152.271 11.03C152.281 11.16 152.286 11.28 152.286 11.39V12.92C152.286 13.05 152.281 13.175 152.271 13.295C152.271 13.425 152.246 13.53 152.196 13.61C152.166 13.65 152.111 13.68 152.031 13.7C151.951 13.72 151.861 13.73 151.761 13.73C151.661 13.74 151.561 13.74 151.461 13.73C151.361 13.73 151.276 13.73 151.206 13.73H150.801C150.771 13.73 150.736 13.73 150.696 13.73C150.656 13.73 150.621 13.725 150.591 13.715H150.471C150.301 13.665 150.211 13.565 150.201 13.415C150.191 13.275 150.186 13.105 150.186 12.905V4.1C150.186 3.99 150.181 3.875 150.171 3.755C150.171 3.625 150.196 3.525 150.246 3.455C150.286 3.385 150.341 3.34 150.411 3.32C150.461 3.3 150.521 3.29 150.591 3.29C150.671 3.29 150.746 3.29 150.816 3.29H151.536C151.636 3.29 151.731 3.29 151.821 3.29C151.911 3.29 151.986 3.315 152.046 3.365C152.116 3.415 152.151 3.48 152.151 3.56C152.161 3.63 152.186 3.705 152.226 3.785C152.236 3.815 152.246 3.84 152.256 3.86C152.276 3.87 152.296 3.885 152.316 3.905C152.426 3.915 152.516 3.885 152.586 3.815C152.656 3.745 152.726 3.685 152.796 3.635C152.926 3.545 153.061 3.465 153.201 3.395C153.341 3.315 153.496 3.25 153.666 3.2C153.746 3.17 153.831 3.15 153.921 3.14C154.021 3.13 154.116 3.115 154.206 3.095C154.246 3.085 154.286 3.085 154.326 3.095C154.376 3.105 154.416 3.1 154.446 3.08C155.016 3.06 155.496 3.14 155.886 3.32C156.286 3.49 156.626 3.715 156.906 3.995C156.956 4.045 157.001 4.095 157.041 4.145C157.081 4.185 157.121 4.23 157.161 4.28C157.231 4.37 157.291 4.46 157.341 4.55C157.401 4.64 157.456 4.73 157.506 4.82C157.526 4.84 157.536 4.865 157.536 4.895C157.546 4.925 157.561 4.96 157.581 5C157.641 5.1 157.696 5.22 157.746 5.36C157.766 5.42 157.786 5.485 157.806 5.555C157.826 5.615 157.846 5.68 157.866 5.75C157.906 5.87 157.931 5.995 157.941 6.125C157.961 6.255 157.986 6.39 158.016 6.53C158.016 6.58 158.016 6.635 158.016 6.695C158.026 6.755 158.036 6.815 158.046 6.875V7.04ZM155.931 7.385C155.941 7.335 155.946 7.27 155.946 7.19C155.946 7.1 155.941 7.03 155.931 6.98V6.845C155.911 6.785 155.901 6.72 155.901 6.65C155.901 6.58 155.891 6.51 155.871 6.44C155.851 6.34 155.831 6.245 155.811 6.155C155.791 6.055 155.761 5.965 155.721 5.885C155.601 5.565 155.446 5.31 155.256 5.12C155.066 4.93 154.796 4.79 154.446 4.7C154.366 4.68 154.276 4.67 154.176 4.67C154.086 4.67 153.996 4.67 153.906 4.67C153.866 4.68 153.831 4.685 153.801 4.685C153.771 4.685 153.736 4.69 153.696 4.7C153.626 4.72 153.556 4.74 153.486 4.76C153.426 4.77 153.366 4.79 153.306 4.82C153.046 4.93 152.841 5.1 152.691 5.33C152.551 5.56 152.436 5.815 152.346 6.095C152.326 6.175 152.311 6.26 152.301 6.35C152.291 6.43 152.276 6.51 152.256 6.59C152.246 6.63 152.241 6.695 152.241 6.785C152.221 6.825 152.216 6.875 152.226 6.935C152.236 6.985 152.236 7.035 152.226 7.085C152.206 7.145 152.206 7.2 152.226 7.25V7.43C152.226 7.48 152.226 7.525 152.226 7.565C152.226 7.605 152.236 7.645 152.256 7.685C152.256 7.755 152.261 7.81 152.271 7.85C152.281 7.91 152.291 7.97 152.301 8.03C152.311 8.09 152.326 8.15 152.346 8.21C152.436 8.5 152.541 8.74 152.661 8.93C152.791 9.11 152.971 9.27 153.201 9.41C153.341 9.49 153.506 9.555 153.696 9.605C153.736 9.615 153.771 9.62 153.801 9.62C153.831 9.61 153.866 9.61 153.906 9.62C153.946 9.63 154.006 9.64 154.086 9.65C154.166 9.65 154.231 9.645 154.281 9.635C154.361 9.615 154.441 9.6 154.521 9.59C154.611 9.57 154.696 9.545 154.776 9.515C155.016 9.415 155.211 9.275 155.361 9.095C155.511 8.915 155.636 8.705 155.736 8.465C155.786 8.345 155.821 8.22 155.841 8.09C155.861 7.96 155.886 7.825 155.916 7.685C155.916 7.635 155.916 7.585 155.916 7.535C155.926 7.485 155.931 7.435 155.931 7.385ZM166.076 10.4C166.096 10.51 166.106 10.62 166.106 10.73C166.116 10.84 166.066 10.915 165.956 10.955C165.896 10.985 165.826 11 165.746 11C165.666 11 165.586 11 165.506 11H164.696C164.606 11 164.516 11 164.426 11C164.346 10.99 164.281 10.965 164.231 10.925C164.161 10.885 164.106 10.83 164.066 10.76C164.036 10.68 163.991 10.615 163.931 10.565C163.911 10.545 163.886 10.53 163.856 10.52C163.826 10.5 163.786 10.495 163.736 10.505C163.686 10.525 163.636 10.55 163.586 10.58C163.546 10.61 163.501 10.635 163.451 10.655C163.401 10.695 163.346 10.73 163.286 10.76C163.226 10.79 163.166 10.82 163.106 10.85C162.976 10.91 162.841 10.96 162.701 11C162.561 11.03 162.416 11.065 162.266 11.105C162.196 11.125 162.126 11.135 162.056 11.135C161.996 11.145 161.931 11.155 161.861 11.165C161.831 11.165 161.801 11.165 161.771 11.165C161.741 11.175 161.711 11.18 161.681 11.18H161.516C161.416 11.2 161.316 11.2 161.216 11.18H161.081C161.011 11.16 160.941 11.15 160.871 11.15C160.811 11.16 160.751 11.155 160.691 11.135C160.591 11.115 160.496 11.095 160.406 11.075C160.316 11.065 160.231 11.04 160.151 11C159.861 10.89 159.611 10.75 159.401 10.58C159.201 10.4 159.041 10.165 158.921 9.875C158.891 9.805 158.861 9.73 158.831 9.65C158.811 9.57 158.791 9.485 158.771 9.395C158.751 9.345 158.741 9.295 158.741 9.245C158.751 9.195 158.751 9.145 158.741 9.095C158.731 9.065 158.721 9.005 158.711 8.915C158.711 8.815 158.716 8.745 158.726 8.705C158.746 8.605 158.756 8.52 158.756 8.45C158.786 8.34 158.816 8.23 158.846 8.12C158.876 8 158.916 7.895 158.966 7.805C159.136 7.515 159.331 7.295 159.551 7.145C159.771 6.995 160.051 6.865 160.391 6.755C160.521 6.705 160.656 6.67 160.796 6.65C160.936 6.63 161.076 6.605 161.216 6.575C161.296 6.555 161.381 6.545 161.471 6.545C161.561 6.535 161.651 6.52 161.741 6.5C161.811 6.48 161.881 6.475 161.951 6.485C162.021 6.485 162.096 6.475 162.176 6.455C162.246 6.435 162.316 6.425 162.386 6.425C162.456 6.425 162.531 6.415 162.611 6.395C162.821 6.345 163.011 6.305 163.181 6.275C163.361 6.235 163.521 6.145 163.661 6.005C163.751 5.915 163.811 5.815 163.841 5.705C163.851 5.675 163.851 5.65 163.841 5.63C163.841 5.61 163.846 5.59 163.856 5.57C163.866 5.55 163.871 5.52 163.871 5.48C163.871 5.44 163.871 5.41 163.871 5.39C163.861 5.35 163.851 5.31 163.841 5.27C163.841 5.23 163.836 5.195 163.826 5.165C163.726 4.865 163.516 4.66 163.196 4.55C163.106 4.52 162.996 4.5 162.866 4.49C162.746 4.47 162.621 4.465 162.491 4.475C162.361 4.475 162.236 4.485 162.116 4.505C161.996 4.525 161.891 4.55 161.801 4.58C161.741 4.6 161.681 4.63 161.621 4.67C161.571 4.7 161.521 4.735 161.471 4.775C161.421 4.815 161.366 4.87 161.306 4.94C161.256 5.01 161.221 5.075 161.201 5.135C161.151 5.235 161.106 5.33 161.066 5.42C161.036 5.51 160.966 5.57 160.856 5.6C160.776 5.62 160.691 5.63 160.601 5.63C160.511 5.63 160.421 5.63 160.331 5.63H159.761C159.711 5.63 159.661 5.635 159.611 5.645C159.561 5.645 159.516 5.64 159.476 5.63H159.341C159.321 5.62 159.296 5.615 159.266 5.615C159.236 5.615 159.211 5.605 159.191 5.585C159.111 5.565 159.056 5.5 159.026 5.39C159.016 5.34 159.016 5.29 159.026 5.24C159.036 5.19 159.046 5.145 159.056 5.105C159.086 4.995 159.116 4.895 159.146 4.805C159.186 4.705 159.231 4.615 159.281 4.535C159.311 4.485 159.341 4.435 159.371 4.385C159.401 4.335 159.431 4.285 159.461 4.235C159.541 4.125 159.641 4.02 159.761 3.92C159.781 3.91 159.811 3.885 159.851 3.845C159.901 3.805 159.946 3.77 159.986 3.74C160.026 3.71 160.071 3.68 160.121 3.65C160.291 3.54 160.471 3.455 160.661 3.395C160.851 3.325 161.046 3.26 161.246 3.2C161.366 3.17 161.491 3.15 161.621 3.14C161.751 3.13 161.881 3.11 162.011 3.08C162.051 3.07 162.111 3.07 162.191 3.08C162.281 3.09 162.336 3.085 162.356 3.065C162.766 3.055 163.156 3.07 163.526 3.11C163.906 3.15 164.246 3.225 164.546 3.335C164.856 3.445 165.121 3.595 165.341 3.785C165.561 3.965 165.731 4.2 165.851 4.49C165.921 4.66 165.961 4.855 165.971 5.075C165.981 5.295 165.986 5.52 165.986 5.75V9.095C165.986 9.285 165.986 9.48 165.986 9.68C165.986 9.87 166.006 10.045 166.046 10.205C166.056 10.235 166.061 10.27 166.061 10.31C166.061 10.34 166.066 10.37 166.076 10.4ZM163.871 8.09C163.881 8.04 163.886 7.985 163.886 7.925C163.886 7.855 163.881 7.795 163.871 7.745C163.851 7.685 163.841 7.63 163.841 7.58C163.841 7.53 163.821 7.49 163.781 7.46C163.731 7.42 163.656 7.4 163.556 7.4C163.516 7.41 163.481 7.42 163.451 7.43C163.421 7.43 163.386 7.435 163.346 7.445C163.276 7.465 163.201 7.48 163.121 7.49C163.041 7.5 162.961 7.515 162.881 7.535C162.851 7.545 162.806 7.55 162.746 7.55C162.616 7.58 162.486 7.6 162.356 7.61C162.226 7.62 162.101 7.645 161.981 7.685C161.901 7.705 161.826 7.725 161.756 7.745C161.686 7.755 161.616 7.775 161.546 7.805C161.336 7.895 161.156 8.03 161.006 8.21C160.866 8.39 160.816 8.64 160.856 8.96C160.876 9.13 160.931 9.27 161.021 9.38C161.091 9.49 161.196 9.58 161.336 9.65C161.476 9.71 161.626 9.755 161.786 9.785C161.956 9.815 162.131 9.825 162.311 9.815C162.501 9.795 162.676 9.76 162.836 9.71C163.096 9.63 163.301 9.505 163.451 9.335C163.601 9.155 163.716 8.935 163.796 8.675C163.816 8.605 163.826 8.535 163.826 8.465C163.836 8.385 163.851 8.305 163.871 8.225V8.09ZM169.124 3.275L169.184 3.725C169.184 4.295 169.199 4.725 169.229 5.015C169.269 5.305 169.339 5.53 169.439 5.69C169.539 5.86 169.664 5.97 169.814 6.02C169.964 6.07 170.189 6.095 170.489 6.095H171.239V3.275H173.204V6.095H173.969C174.329 6.095 174.594 6.055 174.764 5.975C174.934 5.885 175.044 5.73 175.094 5.51C175.144 5.3 175.169 4.94 175.169 4.43V3.275H177.389L177.284 4.085C177.254 4.335 177.214 4.595 177.164 4.865C177.114 5.145 177.089 5.385 177.089 5.585C177.019 6.025 176.884 6.345 176.684 6.545L176.429 6.845L176.729 7.055C177.169 7.355 177.424 8.075 177.494 9.215C177.554 9.895 177.604 10.365 177.644 10.625L177.689 11.03H175.469L175.424 9.665C175.394 8.825 175.299 8.3 175.139 8.09C174.999 7.87 174.624 7.76 174.014 7.76H173.204V11.03H171.239V10.625C171.239 10.555 171.249 10.47 171.269 10.37C171.289 10.27 171.299 10.145 171.299 9.995V9.515L171.239 9.02V7.76H170.444C170.134 7.76 169.899 7.785 169.739 7.835C169.569 7.885 169.434 7.975 169.334 8.105C169.234 8.245 169.164 8.43 169.124 8.66C169.094 8.9 169.064 9.235 169.034 9.665L168.974 11.03H166.814L166.919 9.665C167.019 8.265 167.284 7.41 167.714 7.1C167.954 6.9 168.004 6.735 167.864 6.605L167.699 6.455L167.549 6.215L167.414 5.915C167.384 5.805 167.359 5.67 167.339 5.51L167.264 5.045C167.234 4.875 167.219 4.67 167.219 4.43L167.114 3.275H169.124ZM185.485 10.4C185.505 10.51 185.515 10.62 185.515 10.73C185.525 10.84 185.475 10.915 185.365 10.955C185.305 10.985 185.235 11 185.155 11C185.075 11 184.995 11 184.915 11H184.105C184.015 11 183.925 11 183.835 11C183.755 10.99 183.69 10.965 183.64 10.925C183.57 10.885 183.515 10.83 183.475 10.76C183.445 10.68 183.4 10.615 183.34 10.565C183.32 10.545 183.295 10.53 183.265 10.52C183.235 10.5 183.195 10.495 183.145 10.505C183.095 10.525 183.045 10.55 182.995 10.58C182.955 10.61 182.91 10.635 182.86 10.655C182.81 10.695 182.755 10.73 182.695 10.76C182.635 10.79 182.575 10.82 182.515 10.85C182.385 10.91 182.25 10.96 182.11 11C181.97 11.03 181.825 11.065 181.675 11.105C181.605 11.125 181.535 11.135 181.465 11.135C181.405 11.145 181.34 11.155 181.27 11.165C181.24 11.165 181.21 11.165 181.18 11.165C181.15 11.175 181.12 11.18 181.09 11.18H180.925C180.825 11.2 180.725 11.2 180.625 11.18H180.49C180.42 11.16 180.35 11.15 180.28 11.15C180.22 11.16 180.16 11.155 180.1 11.135C180 11.115 179.905 11.095 179.815 11.075C179.725 11.065 179.64 11.04 179.56 11C179.27 10.89 179.02 10.75 178.81 10.58C178.61 10.4 178.45 10.165 178.33 9.875C178.3 9.805 178.27 9.73 178.24 9.65C178.22 9.57 178.2 9.485 178.18 9.395C178.16 9.345 178.15 9.295 178.15 9.245C178.16 9.195 178.16 9.145 178.15 9.095C178.14 9.065 178.13 9.005 178.12 8.915C178.12 8.815 178.125 8.745 178.135 8.705C178.155 8.605 178.165 8.52 178.165 8.45C178.195 8.34 178.225 8.23 178.255 8.12C178.285 8 178.325 7.895 178.375 7.805C178.545 7.515 178.74 7.295 178.96 7.145C179.18 6.995 179.46 6.865 179.8 6.755C179.93 6.705 180.065 6.67 180.205 6.65C180.345 6.63 180.485 6.605 180.625 6.575C180.705 6.555 180.79 6.545 180.88 6.545C180.97 6.535 181.06 6.52 181.15 6.5C181.22 6.48 181.29 6.475 181.36 6.485C181.43 6.485 181.505 6.475 181.585 6.455C181.655 6.435 181.725 6.425 181.795 6.425C181.865 6.425 181.94 6.415 182.02 6.395C182.23 6.345 182.42 6.305 182.59 6.275C182.77 6.235 182.93 6.145 183.07 6.005C183.16 5.915 183.22 5.815 183.25 5.705C183.26 5.675 183.26 5.65 183.25 5.63C183.25 5.61 183.255 5.59 183.265 5.57C183.275 5.55 183.28 5.52 183.28 5.48C183.28 5.44 183.28 5.41 183.28 5.39C183.27 5.35 183.26 5.31 183.25 5.27C183.25 5.23 183.245 5.195 183.235 5.165C183.135 4.865 182.925 4.66 182.605 4.55C182.515 4.52 182.405 4.5 182.275 4.49C182.155 4.47 182.03 4.465 181.9 4.475C181.77 4.475 181.645 4.485 181.525 4.505C181.405 4.525 181.3 4.55 181.21 4.58C181.15 4.6 181.09 4.63 181.03 4.67C180.98 4.7 180.93 4.735 180.88 4.775C180.83 4.815 180.775 4.87 180.715 4.94C180.665 5.01 180.63 5.075 180.61 5.135C180.56 5.235 180.515 5.33 180.475 5.42C180.445 5.51 180.375 5.57 180.265 5.6C180.185 5.62 180.1 5.63 180.01 5.63C179.92 5.63 179.83 5.63 179.74 5.63H179.17C179.12 5.63 179.07 5.635 179.02 5.645C178.97 5.645 178.925 5.64 178.885 5.63H178.75C178.73 5.62 178.705 5.615 178.675 5.615C178.645 5.615 178.62 5.605 178.6 5.585C178.52 5.565 178.465 5.5 178.435 5.39C178.425 5.34 178.425 5.29 178.435 5.24C178.445 5.19 178.455 5.145 178.465 5.105C178.495 4.995 178.525 4.895 178.555 4.805C178.595 4.705 178.64 4.615 178.69 4.535C178.72 4.485 178.75 4.435 178.78 4.385C178.81 4.335 178.84 4.285 178.87 4.235C178.95 4.125 179.05 4.02 179.17 3.92C179.19 3.91 179.22 3.885 179.26 3.845C179.31 3.805 179.355 3.77 179.395 3.74C179.435 3.71 179.48 3.68 179.53 3.65C179.7 3.54 179.88 3.455 180.07 3.395C180.26 3.325 180.455 3.26 180.655 3.2C180.775 3.17 180.9 3.15 181.03 3.14C181.16 3.13 181.29 3.11 181.42 3.08C181.46 3.07 181.52 3.07 181.6 3.08C181.69 3.09 181.745 3.085 181.765 3.065C182.175 3.055 182.565 3.07 182.935 3.11C183.315 3.15 183.655 3.225 183.955 3.335C184.265 3.445 184.53 3.595 184.75 3.785C184.97 3.965 185.14 4.2 185.26 4.49C185.33 4.66 185.37 4.855 185.38 5.075C185.39 5.295 185.395 5.52 185.395 5.75V9.095C185.395 9.285 185.395 9.48 185.395 9.68C185.395 9.87 185.415 10.045 185.455 10.205C185.465 10.235 185.47 10.27 185.47 10.31C185.47 10.34 185.475 10.37 185.485 10.4ZM183.28 8.09C183.29 8.04 183.295 7.985 183.295 7.925C183.295 7.855 183.29 7.795 183.28 7.745C183.26 7.685 183.25 7.63 183.25 7.58C183.25 7.53 183.23 7.49 183.19 7.46C183.14 7.42 183.065 7.4 182.965 7.4C182.925 7.41 182.89 7.42 182.86 7.43C182.83 7.43 182.795 7.435 182.755 7.445C182.685 7.465 182.61 7.48 182.53 7.49C182.45 7.5 182.37 7.515 182.29 7.535C182.26 7.545 182.215 7.55 182.155 7.55C182.025 7.58 181.895 7.6 181.765 7.61C181.635 7.62 181.51 7.645 181.39 7.685C181.31 7.705 181.235 7.725 181.165 7.745C181.095 7.755 181.025 7.775 180.955 7.805C180.745 7.895 180.565 8.03 180.415 8.21C180.275 8.39 180.225 8.64 180.265 8.96C180.285 9.13 180.34 9.27 180.43 9.38C180.5 9.49 180.605 9.58 180.745 9.65C180.885 9.71 181.035 9.755 181.195 9.785C181.365 9.815 181.54 9.825 181.72 9.815C181.91 9.795 182.085 9.76 182.245 9.71C182.505 9.63 182.71 9.505 182.86 9.335C183.01 9.155 183.125 8.935 183.205 8.675C183.225 8.605 183.235 8.535 183.235 8.465C183.245 8.385 183.26 8.305 183.28 8.225V8.09ZM194.114 7.055C194.134 7.135 194.134 7.225 194.114 7.325C194.094 7.425 194.059 7.49 194.009 7.52C193.959 7.56 193.884 7.59 193.784 7.61C193.694 7.62 193.589 7.63 193.469 7.64C193.359 7.64 193.244 7.64 193.124 7.64C193.014 7.63 192.914 7.625 192.824 7.625H189.164C189.094 7.625 189.024 7.625 188.954 7.625C188.894 7.625 188.839 7.635 188.789 7.655C188.709 7.695 188.659 7.735 188.639 7.775C188.619 7.795 188.599 7.835 188.579 7.895C188.559 7.945 188.554 7.995 188.564 8.045C188.584 8.105 188.594 8.165 188.594 8.225C188.604 8.275 188.619 8.33 188.639 8.39C188.719 8.63 188.814 8.83 188.924 8.99C189.044 9.14 189.204 9.275 189.404 9.395C189.484 9.445 189.564 9.48 189.644 9.5C189.734 9.51 189.824 9.53 189.914 9.56C189.994 9.58 190.104 9.595 190.244 9.605C190.384 9.615 190.504 9.61 190.604 9.59H190.739C190.839 9.57 190.929 9.55 191.009 9.53C191.099 9.5 191.184 9.47 191.264 9.44C191.364 9.39 191.474 9.325 191.594 9.245C191.724 9.165 191.819 9.085 191.879 9.005C191.929 8.935 191.979 8.87 192.029 8.81C192.089 8.74 192.159 8.69 192.239 8.66C192.339 8.61 192.464 8.59 192.614 8.6C192.774 8.6 192.919 8.6 193.049 8.6C193.109 8.6 193.169 8.6 193.229 8.6C193.299 8.59 193.359 8.595 193.409 8.615H193.559C193.659 8.635 193.729 8.66 193.769 8.69C193.809 8.71 193.829 8.755 193.829 8.825C193.839 8.895 193.834 8.955 193.814 9.005C193.764 9.145 193.709 9.27 193.649 9.38C193.589 9.49 193.519 9.6 193.439 9.71C193.219 10.04 192.969 10.305 192.689 10.505C192.409 10.705 192.059 10.875 191.639 11.015C191.529 11.055 191.419 11.08 191.309 11.09C191.199 11.1 191.084 11.12 190.964 11.15C190.924 11.16 190.879 11.16 190.829 11.15C190.789 11.15 190.749 11.155 190.709 11.165H190.544C190.494 11.185 190.434 11.19 190.364 11.18C190.304 11.18 190.249 11.175 190.199 11.165C190.119 11.155 190.049 11.155 189.989 11.165C189.929 11.175 189.864 11.17 189.794 11.15C189.744 11.13 189.689 11.12 189.629 11.12C189.569 11.12 189.514 11.11 189.464 11.09C189.354 11.07 189.244 11.045 189.134 11.015C189.024 10.995 188.924 10.96 188.834 10.91C188.724 10.87 188.619 10.835 188.519 10.805C188.429 10.765 188.344 10.72 188.264 10.67C187.944 10.47 187.659 10.24 187.409 9.98C187.159 9.71 186.954 9.4 186.794 9.05C186.744 8.94 186.704 8.83 186.674 8.72C186.644 8.6 186.604 8.48 186.554 8.36C186.544 8.32 186.539 8.285 186.539 8.255C186.539 8.215 186.534 8.175 186.524 8.135C186.484 8.015 186.459 7.885 186.449 7.745C186.439 7.605 186.429 7.465 186.419 7.325C186.419 7.275 186.414 7.22 186.404 7.16C186.404 7.1 186.409 7.045 186.419 6.995V6.815L186.464 6.455C186.504 6.285 186.539 6.12 186.569 5.96C186.599 5.8 186.644 5.65 186.704 5.51C187.134 4.47 187.864 3.735 188.894 3.305C189.034 3.245 189.174 3.205 189.314 3.185C189.464 3.155 189.619 3.12 189.779 3.08C189.859 3.07 189.934 3.065 190.004 3.065C190.074 3.065 190.149 3.06 190.229 3.05C190.739 3.04 191.174 3.1 191.534 3.23C191.904 3.35 192.234 3.51 192.524 3.71C192.614 3.77 192.704 3.84 192.794 3.92C192.884 3.99 192.964 4.065 193.034 4.145C193.064 4.195 193.104 4.235 193.154 4.265C193.234 4.375 193.309 4.49 193.379 4.61C193.449 4.72 193.524 4.835 193.604 4.955C193.654 5.045 193.694 5.14 193.724 5.24C193.764 5.33 193.804 5.43 193.844 5.54C193.894 5.67 193.934 5.805 193.964 5.945C193.994 6.085 194.029 6.225 194.069 6.365C194.089 6.445 194.094 6.535 194.084 6.635C194.084 6.725 194.094 6.81 194.114 6.89V7.055ZM191.864 6.17C191.934 6.07 191.939 5.95 191.879 5.81C191.829 5.66 191.789 5.55 191.759 5.48C191.619 5.21 191.434 5.005 191.204 4.865C190.974 4.715 190.654 4.635 190.244 4.625C190.214 4.645 190.179 4.65 190.139 4.64C190.099 4.63 190.064 4.63 190.034 4.64C189.984 4.66 189.929 4.675 189.869 4.685C189.809 4.685 189.754 4.695 189.704 4.715C189.264 4.855 188.939 5.13 188.729 5.54C188.709 5.58 188.684 5.635 188.654 5.705C188.634 5.765 188.619 5.83 188.609 5.9C188.599 5.96 188.599 6.02 188.609 6.08C188.629 6.14 188.664 6.19 188.714 6.23C188.794 6.28 188.904 6.305 189.044 6.305C189.184 6.305 189.319 6.305 189.449 6.305H191.114C191.254 6.305 191.399 6.305 191.549 6.305C191.709 6.295 191.814 6.25 191.864 6.17ZM199.517 3.065C199.887 3.055 200.212 3.095 200.492 3.185C200.772 3.275 201.017 3.4 201.227 3.56C201.307 3.62 201.377 3.69 201.437 3.77C201.507 3.85 201.582 3.93 201.662 4.01C201.682 4.03 201.712 4.06 201.752 4.1C201.802 4.13 201.852 4.135 201.902 4.115C202.012 4.085 202.117 4.015 202.217 3.905C202.317 3.785 202.412 3.695 202.502 3.635C202.642 3.525 202.792 3.435 202.952 3.365C203.112 3.285 203.292 3.21 203.492 3.14C203.572 3.12 203.667 3.105 203.777 3.095C203.897 3.075 204.017 3.065 204.137 3.065C204.267 3.055 204.387 3.055 204.497 3.065C204.617 3.075 204.722 3.09 204.812 3.11C204.862 3.12 204.907 3.125 204.947 3.125C204.987 3.125 205.032 3.135 205.082 3.155C205.222 3.195 205.357 3.235 205.487 3.275C205.617 3.315 205.737 3.37 205.847 3.44C206.267 3.7 206.582 4.08 206.792 4.58C206.832 4.67 206.862 4.765 206.882 4.865C206.902 4.955 206.922 5.045 206.942 5.135C206.952 5.205 206.957 5.27 206.957 5.33C206.967 5.39 206.977 5.45 206.987 5.51V5.66C206.997 5.72 206.997 5.79 206.987 5.87C206.987 5.95 206.987 6.025 206.987 6.095V6.965V9.89C206.987 9.97 206.987 10.065 206.987 10.175C206.997 10.275 206.997 10.375 206.987 10.475C206.987 10.565 206.977 10.655 206.957 10.745C206.937 10.825 206.907 10.88 206.867 10.91C206.807 10.96 206.727 10.99 206.627 11C206.537 11 206.437 11 206.327 11H205.532C205.392 11 205.267 10.99 205.157 10.97C205.047 10.95 204.972 10.895 204.932 10.805C204.902 10.735 204.887 10.66 204.887 10.58C204.887 10.49 204.887 10.405 204.887 10.325V9.485V7.46V6.83C204.887 6.78 204.887 6.725 204.887 6.665C204.897 6.605 204.892 6.55 204.872 6.5V6.38C204.872 6.32 204.872 6.26 204.872 6.2C204.872 6.14 204.867 6.08 204.857 6.02C204.847 5.98 204.842 5.94 204.842 5.9C204.842 5.85 204.837 5.805 204.827 5.765C204.787 5.615 204.742 5.485 204.692 5.375C204.652 5.255 204.587 5.15 204.497 5.06C204.357 4.92 204.187 4.82 203.987 4.76C203.947 4.75 203.912 4.75 203.882 4.76C203.852 4.76 203.817 4.75 203.777 4.73C203.737 4.72 203.687 4.715 203.627 4.715C203.577 4.705 203.527 4.705 203.477 4.715C203.417 4.735 203.357 4.745 203.297 4.745C203.237 4.745 203.177 4.755 203.117 4.775C202.827 4.875 202.617 5.025 202.487 5.225C202.317 5.455 202.212 5.745 202.172 6.095C202.142 6.435 202.127 6.81 202.127 7.22V9.2V10.31C202.127 10.41 202.127 10.51 202.127 10.61C202.127 10.71 202.102 10.79 202.052 10.85C202.002 10.92 201.927 10.965 201.827 10.985C201.737 10.995 201.632 11 201.512 11H200.702C200.612 11 200.522 11 200.432 11C200.352 10.99 200.282 10.975 200.222 10.955C200.122 10.905 200.062 10.825 200.042 10.715C200.032 10.605 200.027 10.48 200.027 10.34V9.065V6.71C200.027 6.42 200.017 6.145 199.997 5.885C199.977 5.625 199.912 5.41 199.802 5.24C199.722 5.1 199.617 4.995 199.487 4.925C199.367 4.855 199.217 4.795 199.037 4.745C198.997 4.735 198.957 4.735 198.917 4.745C198.877 4.745 198.832 4.74 198.782 4.73C198.672 4.71 198.567 4.72 198.467 4.76C198.447 4.76 198.427 4.765 198.407 4.775C198.387 4.775 198.367 4.775 198.347 4.775C198.187 4.825 198.032 4.91 197.882 5.03C197.722 5.15 197.597 5.29 197.507 5.45C197.427 5.6 197.367 5.775 197.327 5.975C197.297 6.165 197.277 6.375 197.267 6.605C197.267 6.835 197.267 7.085 197.267 7.355V9.38V10.295C197.267 10.385 197.267 10.475 197.267 10.565C197.267 10.655 197.252 10.735 197.222 10.805C197.182 10.895 197.107 10.95 196.997 10.97C196.887 10.99 196.762 11 196.622 11H195.842C195.742 11 195.642 11 195.542 11C195.452 10.99 195.377 10.965 195.317 10.925C195.227 10.875 195.177 10.785 195.167 10.655C195.167 10.515 195.167 10.37 195.167 10.22V8.465V4.805V3.905C195.167 3.795 195.167 3.7 195.167 3.62C195.177 3.53 195.202 3.455 195.242 3.395C195.292 3.335 195.372 3.295 195.482 3.275H195.572C195.622 3.265 195.672 3.26 195.722 3.26C195.782 3.26 195.837 3.26 195.887 3.26H196.502C196.582 3.26 196.657 3.265 196.727 3.275C196.807 3.275 196.877 3.285 196.937 3.305C197.017 3.335 197.067 3.385 197.087 3.455C197.117 3.525 197.142 3.605 197.162 3.695C197.172 3.725 197.172 3.755 197.162 3.785C197.162 3.805 197.172 3.825 197.192 3.845C197.202 3.875 197.212 3.9 197.222 3.92C197.242 3.93 197.262 3.945 197.282 3.965C197.402 3.975 197.502 3.94 197.582 3.86C197.662 3.77 197.737 3.7 197.807 3.65C197.947 3.55 198.087 3.46 198.227 3.38C198.377 3.3 198.537 3.235 198.707 3.185C198.797 3.155 198.887 3.135 198.977 3.125C199.067 3.115 199.162 3.1 199.262 3.08C199.292 3.07 199.337 3.07 199.397 3.08C199.457 3.08 199.497 3.075 199.517 3.065Z" fill="black"/>
</svg>
